<svg xmlns="http://www.w3.org/2000/svg" xmlns:xlink="http://www.w3.org/1999/xlink" width="150" zoomAndPan="magnify" viewBox="0 0 112.5 112.499997" height="150" preserveAspectRatio="xMidYMid meet" version="1.0"><defs><g/><clipPath id="f452e4c230"><path d="M 107 43 L 112.003906 43 L 112.003906 47 L 107 47 Z M 107 43 " clip-rule="nonzero"/></clipPath><clipPath id="6971645c1e"><path d="M 107 48 L 112.003906 48 L 112.003906 55 L 107 55 Z M 107 48 " clip-rule="nonzero"/></clipPath></defs><g fill="#382a40" fill-opacity="1"><g transform="translate(57.636422, 78.718984)"><g><path d="M 36.703125 -6.234375 L 40.203125 10.65625 C 40.828125 13.675781 41.039062 16.195312 40.84375 18.21875 C 40.644531 20.238281 40.125 21.859375 39.28125 23.078125 C 38.445312 24.296875 37.398438 25.234375 36.140625 25.890625 C 34.890625 26.554688 33.515625 27.039062 32.015625 27.34375 C 29.722656 27.820312 27.6875 27.59375 25.90625 26.65625 C 24.125 25.726562 22.632812 24.304688 21.4375 22.390625 C 20.238281 20.484375 19.382812 18.273438 18.875 15.765625 L 18.046875 11.8125 L 9.96875 13.484375 L 10.625 16.671875 L 3.734375 18.09375 L 0.265625 1.296875 L 7.15625 -0.125 L 7.765625 2.796875 L 30.484375 -1.90625 L 29.875 -4.828125 Z M 32.75 8.765625 L 23.671875 10.640625 L 24.15625 13 C 24.476562 14.53125 25.109375 15.6875 26.046875 16.46875 C 26.984375 17.257812 28.148438 17.507812 29.546875 17.21875 C 31.066406 16.90625 32.148438 16.234375 32.796875 15.203125 C 33.441406 14.179688 33.609375 12.90625 33.296875 11.375 Z M 32.75 8.765625 "/></g></g></g><g fill="#9f9a7f" fill-opacity="1"><g transform="translate(19.284496, 76.32322)"><g><path d="M 10.796875 -1 C 12.265625 -0.914062 13.910156 -0.765625 15.734375 -0.546875 C 17.554688 -0.335938 19.441406 -0.078125 21.390625 0.234375 C 23.335938 0.546875 25.222656 0.878906 27.046875 1.234375 C 28.867188 1.597656 30.546875 1.96875 32.078125 2.34375 C 33.609375 2.71875 34.84375 3.066406 35.78125 3.390625 C 36.238281 4.316406 36.707031 5.429688 37.1875 6.734375 C 37.675781 8.046875 38.039062 9.457031 38.28125 10.96875 C 38.53125 12.476562 38.550781 14.007812 38.34375 15.5625 C 38.132812 17.113281 37.570312 18.59375 36.65625 20 C 35.75 21.414062 34.367188 22.664062 32.515625 23.75 C 31.617188 24.269531 30.460938 24.882812 29.046875 25.59375 C 27.640625 26.300781 26.078125 27.054688 24.359375 27.859375 C 22.640625 28.660156 20.863281 29.457031 19.03125 30.25 C 17.195312 31.039062 15.40625 31.78125 13.65625 32.46875 C 11.90625 33.164062 10.300781 33.75 8.84375 34.21875 C 8.195312 34.238281 7.515625 33.992188 6.796875 33.484375 C 6.085938 32.984375 5.445312 32.304688 4.875 31.453125 C 4.3125 30.609375 3.882812 29.671875 3.59375 28.640625 C 3.300781 27.609375 3.234375 26.550781 3.390625 25.46875 C 3.554688 24.382812 4.03125 23.351562 4.8125 22.375 C 5.59375 21.40625 6.757812 20.570312 8.3125 19.875 C 8.195312 18.757812 8.039062 17.597656 7.84375 16.390625 C 7.65625 15.179688 7.488281 14.007812 7.34375 12.875 C 6.5625 12.675781 5.710938 12.5 4.796875 12.34375 C 3.878906 12.195312 2.941406 12.054688 1.984375 11.921875 C 0.867188 9.859375 0.304688 8.003906 0.296875 6.359375 C 0.296875 4.722656 0.734375 3.34375 1.609375 2.21875 C 2.484375 1.09375 3.71875 0.253906 5.3125 -0.296875 C 6.90625 -0.847656 8.734375 -1.082031 10.796875 -1 Z M 17.703125 12.796875 C 17.804688 13.566406 17.90625 14.300781 18 15 C 18.101562 15.707031 18.207031 16.4375 18.3125 17.1875 C 19.71875 16.644531 21.097656 16.097656 22.453125 15.546875 C 23.804688 14.992188 25.171875 14.445312 26.546875 13.90625 C 26.515625 13.84375 26.488281 13.738281 26.46875 13.59375 C 25.03125 13.476562 23.585938 13.347656 22.140625 13.203125 C 20.691406 13.054688 19.210938 12.921875 17.703125 12.796875 Z M 17.703125 12.796875 "/></g></g></g><path fill="#000000" d="M 55.261719 33.230469 C 48.742188 21.859375 3.394531 35.601562 4.902344 67.304688 C 5.113281 71.710938 4.839844 76.855469 8.121094 80.164062 C 16.09375 88.203125 42.617188 87.558594 52.746094 87.066406 C 63.328125 86.550781 97.367188 88.664062 101.546875 75.832031 C 103.148438 70.925781 100.433594 66.5625 101.273438 62.027344 C 102.058594 57.792969 110.507812 56.941406 110.8125 48.945312 C 111.105469 41.277344 103.816406 35.953125 101.386719 29.140625 C 100.117188 25.59375 100.289062 6.679688 99.136719 6.078125 C 95.921875 4.402344 87.339844 18.941406 78.363281 18.722656 C 68.4375 18.480469 69.078125 0.554688 64.996094 1.574219 C 59.800781 2.871094 56.855469 27.578125 55.261719 33.230469 Z M 55.261719 33.230469 " fill-opacity="1" fill-rule="evenodd"/><path fill="#ffffff" d="M 65.113281 46.082031 C 62.25 46.515625 59.378906 47.351562 56.570312 48.0625 C 56.199219 48.15625 55.972656 48.535156 56.066406 48.910156 C 56.160156 49.28125 56.539062 49.507812 56.914062 49.410156 C 59.675781 48.710938 62.503906 47.882812 65.324219 47.457031 C 65.703125 47.398438 65.964844 47.042969 65.90625 46.664062 C 65.851562 46.285156 65.496094 46.023438 65.113281 46.082031 Z M 65.113281 46.082031 " fill-opacity="1" fill-rule="evenodd"/><path fill="#ffffff" d="M 66.023438 51.6875 C 66.234375 51.605469 66.402344 51.421875 66.449219 51.183594 C 66.523438 50.839844 66.386719 50.644531 66.3125 50.554688 C 66.144531 50.347656 65.902344 50.214844 65.550781 50.320312 C 65.476562 50.34375 65.34375 50.398438 65.207031 50.523438 C 65.089844 50.632812 64.894531 50.878906 64.785156 50.976562 C 64.1875 51.507812 63.558594 52.003906 62.945312 52.519531 C 61.324219 53.875 59.703125 55.226562 58.035156 56.53125 C 57.734375 56.769531 57.679688 57.207031 57.917969 57.507812 C 58.152344 57.808594 58.59375 57.863281 58.894531 57.625 C 60.574219 56.3125 62.207031 54.949219 63.839844 53.585938 C 64.464844 53.0625 65.101562 52.554688 65.710938 52.015625 C 65.777344 51.957031 65.921875 51.800781 66.023438 51.6875 Z M 65.074219 50.972656 C 65.070312 51.019531 65.070312 51.058594 65.074219 51.097656 C 65.070312 51.058594 65.070312 51.015625 65.074219 50.972656 Z M 65.078125 50.949219 L 65.078125 50.960938 L 65.078125 50.9375 Z M 65.078125 50.949219 " fill-opacity="1" fill-rule="evenodd"/><g clip-path="url(#f452e4c230)"><path fill="#ffffff" d="M 108.589844 43.792969 C 108.480469 43.761719 108.363281 43.757812 108.246094 43.785156 C 107.851562 43.878906 107.761719 44.15625 107.726562 44.285156 C 107.699219 44.386719 107.601562 44.964844 108.222656 45.136719 C 108.285156 45.15625 108.769531 45.226562 109.480469 45.328125 C 110.148438 45.425781 110.816406 45.53125 111.484375 45.628906 C 113.488281 45.929688 115.496094 46.199219 117.515625 46.402344 C 117.898438 46.4375 118.238281 46.160156 118.277344 45.777344 C 118.316406 45.394531 118.035156 45.054688 117.652344 45.015625 C 115.65625 44.816406 113.671875 44.546875 111.6875 44.253906 C 111.019531 44.152344 110.351562 44.050781 109.683594 43.953125 C 109.175781 43.878906 108.699219 43.808594 108.589844 43.792969 Z M 109.007812 44.804688 C 108.917969 44.96875 108.757812 45.097656 108.558594 45.140625 C 108.835938 45.078125 108.953125 44.914062 109.007812 44.804688 Z M 109.058594 44.226562 C 109.113281 44.371094 109.113281 44.515625 109.074219 44.648438 C 109.105469 44.539062 109.109375 44.425781 109.082031 44.308594 C 109.074219 44.28125 109.066406 44.253906 109.058594 44.226562 Z M 109.058594 44.226562 " fill-opacity="1" fill-rule="evenodd"/></g><g clip-path="url(#6971645c1e)"><path fill="#ffffff" d="M 107.960938 49.597656 C 110.585938 51.15625 112.960938 53.105469 115.691406 54.515625 C 116.03125 54.691406 116.453125 54.554688 116.628906 54.214844 C 116.808594 53.875 116.671875 53.453125 116.332031 53.277344 C 113.625 51.878906 111.273438 49.945312 108.667969 48.398438 L 108.621094 48.375 C 108.53125 48.289062 108.417969 48.230469 108.289062 48.203125 C 107.910156 48.128906 107.542969 48.371094 107.464844 48.746094 C 107.4375 48.894531 107.441406 49.078125 107.5625 49.269531 C 107.597656 49.324219 107.65625 49.394531 107.742188 49.460938 C 107.792969 49.503906 107.914062 49.574219 107.960938 49.597656 Z M 107.960938 49.597656 " fill-opacity="1" fill-rule="evenodd"/></g><path fill="#ffffff" d="M 74.414062 27.277344 C 73.253906 27.085938 71.601562 27.761719 70.554688 28.148438 C 61.867188 31.359375 69.324219 41.824219 75.625 41.703125 C 83.855469 41.546875 82.699219 25.625 74.414062 27.277344 Z M 74.414062 27.277344 " fill-opacity="1" fill-rule="evenodd"/><path fill="#000000" d="M 76.183594 29.039062 C 75.253906 28.625 73.730469 28.792969 72.769531 28.867188 C 64.8125 29.472656 68.832031 39.445312 74.132812 40.757812 C 81.0625 42.472656 83.476562 29.578125 76.183594 29.039062 Z M 76.183594 29.039062 " fill-opacity="1" fill-rule="evenodd"/><path fill="#ffffff" d="M 93.894531 26.863281 C 83.9375 26.734375 87.726562 41.605469 95.929688 41.3125 C 104.074219 41.019531 101.101562 26.730469 93.894531 26.863281 Z M 93.894531 26.863281 " fill-opacity="1" fill-rule="evenodd"/><path fill="#000000" d="M 94.195312 28.25 C 85.566406 28.144531 88.847656 40.363281 95.957031 40.121094 C 103.015625 39.882812 100.441406 28.144531 94.195312 28.25 Z M 94.195312 28.25 " fill-opacity="1" fill-rule="evenodd"/></svg>