<svg xmlns="http://www.w3.org/2000/svg" xmlns:xlink="http://www.w3.org/1999/xlink" width="100" zoomAndPan="magnify" viewBox="0 0 75 74.999997" height="100" preserveAspectRatio="xMidYMid meet" version="1.0"><defs><g/><clipPath id="0e3707d8a2"><path d="M 14.796875 4.90625 L 44.796875 4.90625 L 44.796875 72.40625 L 14.796875 72.40625 Z M 14.796875 4.90625 " clip-rule="nonzero"/></clipPath></defs><g fill="#382a40" fill-opacity="1"><g transform="translate(27.732917, 61.450987)"><g><path d="M 16.71875 -15.5625 L 24.1875 -8.09375 C 25.53125 -6.75 26.488281 -5.523438 27.0625 -4.421875 C 27.644531 -3.328125 27.925781 -2.320312 27.90625 -1.40625 C 27.894531 -0.5 27.675781 0.328125 27.25 1.078125 C 26.832031 1.835938 26.289062 2.550781 25.625 3.21875 C 24.601562 4.238281 23.476562 4.8125 22.25 4.9375 C 21.019531 5.0625 19.773438 4.832031 18.515625 4.25 C 17.265625 3.675781 16.085938 2.835938 14.984375 1.734375 L 13.234375 -0.015625 L 9.65625 3.5625 L 11.0625 4.96875 L 8.015625 8.015625 L 0.578125 0.578125 L 3.625 -2.46875 L 4.90625 -1.1875 L 14.96875 -11.25 L 13.6875 -12.53125 Z M 19.75 -6.53125 L 15.734375 -2.515625 L 16.765625 -1.484375 C 17.441406 -0.804688 18.148438 -0.421875 18.890625 -0.328125 C 19.640625 -0.242188 20.320312 -0.507812 20.9375 -1.125 C 21.613281 -1.800781 21.941406 -2.507812 21.921875 -3.25 C 21.910156 -4 21.566406 -4.710938 20.890625 -5.390625 Z M 19.75 -6.53125 "/></g></g></g><g fill="#9f9a7f" fill-opacity="1"><g transform="translate(35.607402, 37.277078)"><g><path d="M 0.265625 -5.40625 C 0.410156 -6.125 0.597656 -6.925781 0.828125 -7.8125 C 1.066406 -8.695312 1.332031 -9.609375 1.625 -10.546875 C 1.914062 -11.484375 2.210938 -12.390625 2.515625 -13.265625 C 2.816406 -14.140625 3.113281 -14.941406 3.40625 -15.671875 C 3.695312 -16.398438 3.957031 -16.988281 4.1875 -17.4375 C 4.675781 -17.601562 5.257812 -17.753906 5.9375 -17.890625 C 6.625 -18.035156 7.347656 -18.117188 8.109375 -18.140625 C 8.867188 -18.160156 9.625 -18.0625 10.375 -17.84375 C 11.125 -17.625 11.816406 -17.238281 12.453125 -16.6875 C 13.085938 -16.144531 13.609375 -15.378906 14.015625 -14.390625 C 14.203125 -13.910156 14.421875 -13.296875 14.671875 -12.546875 C 14.921875 -11.804688 15.179688 -10.984375 15.453125 -10.078125 C 15.734375 -9.171875 16.003906 -8.234375 16.265625 -7.265625 C 16.523438 -6.304688 16.765625 -5.367188 16.984375 -4.453125 C 17.210938 -3.546875 17.390625 -2.71875 17.515625 -1.96875 C 17.484375 -1.644531 17.316406 -1.320312 17.015625 -1 C 16.722656 -0.6875 16.34375 -0.421875 15.875 -0.203125 C 15.414062 0.015625 14.921875 0.160156 14.390625 0.234375 C 13.859375 0.304688 13.332031 0.265625 12.8125 0.109375 C 12.289062 -0.046875 11.816406 -0.347656 11.390625 -0.796875 C 10.960938 -1.253906 10.628906 -1.890625 10.390625 -2.703125 C 9.835938 -2.722656 9.253906 -2.726562 8.640625 -2.71875 C 8.035156 -2.707031 7.445312 -2.707031 6.875 -2.71875 C 6.71875 -2.351562 6.570312 -1.945312 6.4375 -1.5 C 6.300781 -1.0625 6.164062 -0.609375 6.03125 -0.140625 C 4.9375 0.265625 3.984375 0.410156 3.171875 0.296875 C 2.359375 0.179688 1.703125 -0.128906 1.203125 -0.640625 C 0.710938 -1.148438 0.382812 -1.816406 0.21875 -2.640625 C 0.0625 -3.472656 0.078125 -4.394531 0.265625 -5.40625 Z M 7.5625 -7.84375 C 7.945312 -7.84375 8.316406 -7.84375 8.671875 -7.84375 C 9.035156 -7.84375 9.398438 -7.84375 9.765625 -7.84375 C 9.597656 -8.570312 9.425781 -9.289062 9.25 -10 C 9.070312 -10.707031 8.898438 -11.421875 8.734375 -12.140625 C 8.691406 -12.117188 8.640625 -12.109375 8.578125 -12.109375 C 8.421875 -11.410156 8.253906 -10.707031 8.078125 -10 C 7.910156 -9.300781 7.738281 -8.582031 7.5625 -7.84375 Z M 7.5625 -7.84375 "/></g></g></g><g clip-path="url(#0e3707d8a2)"><path fill="#000000" d="M 42.539062 55.550781 C 41.488281 54.578125 40.890625 53.820312 40.632812 52.402344 C 40.636719 52.246094 40.636719 52.085938 40.628906 51.929688 C 40.574219 50.539062 40.507812 49.148438 40.429688 47.761719 C 40.164062 44.429688 40.109375 39.660156 36.878906 37.734375 C 35.195312 36.84375 33.109375 37.570312 31.957031 38.992188 C 31.882812 38.644531 31.8125 38.292969 31.746094 37.941406 C 31.226562 35.691406 30.816406 33.402344 30.738281 31.09375 C 30.707031 30.558594 30.792969 30.015625 30.761719 29.484375 C 31.144531 29.4375 31.53125 29.378906 31.910156 29.304688 C 33.363281 29.035156 34.765625 28.570312 36.1875 28.183594 C 37.09375 27.9375 38.023438 27.742188 38.964844 27.683594 C 39.71875 27.601562 40.472656 27.847656 41.226562 27.757812 C 42.371094 27.574219 42.367188 26.421875 41.753906 25.664062 C 40.695312 24.3125 39.625 24.527344 38.105469 24.671875 C 37 24.765625 35.890625 24.855469 34.773438 24.785156 C 33.457031 24.660156 32.136719 24.453125 30.859375 24.097656 C 30.957031 23.675781 31.09375 23.246094 31.394531 22.929688 C 31.433594 22.933594 31.46875 22.933594 31.507812 22.9375 C 33.265625 23.035156 35.039062 22.945312 36.761719 22.582031 C 38.421875 22.25 40.042969 21.578125 41.765625 21.691406 C 42.246094 21.714844 42.695312 21.890625 43.164062 21.976562 C 43.828125 22.144531 44.792969 21.703125 44.578125 20.914062 C 43.742188 18.132812 40.347656 19.257812 38.214844 19.382812 C 37.53125 19.417969 36.84375 19.414062 36.167969 19.308594 C 36.386719 18.980469 36.570312 18.632812 36.714844 18.273438 C 37.371094 16.683594 37.476562 14.898438 37.183594 13.214844 C 36.847656 11.59375 35.996094 10.074219 34.777344 8.945312 C 34.78125 8.804688 34.785156 8.664062 34.789062 8.523438 C 34.773438 7.464844 34.699219 5.957031 33.976562 5.132812 C 33.75 4.910156 33.515625 4.960938 33.40625 5.261719 C 33.292969 5.484375 33.183594 5.707031 33.0625 5.925781 C 32.789062 6.425781 32.445312 6.878906 32.121094 7.347656 C 30.414062 6.75 28.359375 6.667969 26.703125 7.03125 C 25.417969 7.328125 24.109375 7.960938 23 8.820312 C 22.398438 8.539062 21.789062 8.277344 21.179688 8.011719 C 20.726562 7.847656 19.441406 7.054688 19.203125 7.792969 C 19.152344 8.152344 19.289062 8.507812 19.355469 8.855469 C 19.554688 9.730469 19.902344 10.570312 20.296875 11.378906 C 20.371094 11.523438 20.449219 11.671875 20.527344 11.816406 C 20.449219 11.980469 20.378906 12.148438 20.316406 12.320312 C 20.195312 12.503906 20.085938 12.695312 20.023438 12.90625 C 20.023438 12.910156 20.023438 12.914062 20.019531 12.921875 C 19.960938 13.023438 19.898438 13.125 19.839844 13.226562 C 19.378906 14.03125 18.917969 14.835938 18.480469 15.65625 C 16.8125 18.886719 15.609375 22.367188 15.164062 25.980469 C 14.804688 28.832031 14.917969 31.722656 15.132812 34.582031 C 15.332031 37.433594 15.679688 40.277344 16.222656 43.085938 C 16.535156 44.582031 16.796875 46.089844 17.042969 47.597656 C 17.0625 48.597656 17.148438 49.597656 17.285156 50.585938 C 17.457031 51.636719 17.550781 52.742188 17.753906 53.8125 C 17.722656 53.902344 17.695312 53.988281 17.671875 54.070312 C 16.863281 56.433594 17.039062 59.035156 17.867188 61.371094 C 18.339844 62.800781 19.011719 64.167969 19.898438 65.390625 C 21.332031 67.308594 23.179688 68.90625 25.300781 70.027344 C 27.535156 71.289062 30.042969 72.148438 32.613281 72.324219 C 33.902344 72.40625 35.242188 72.269531 36.390625 71.648438 C 37.085938 71.304688 37.683594 70.46875 37.339844 69.691406 C 37.234375 69.46875 37.09375 69.277344 36.921875 69.109375 C 36.277344 68.386719 35.238281 68.035156 34.308594 67.820312 C 33.195312 67.558594 32.066406 67.382812 30.964844 67.078125 C 29.304688 66.613281 27.660156 66.046875 26.132812 65.238281 C 25.03125 64.648438 23.96875 63.992188 23.03125 63.15625 C 22.046875 62.269531 21.109375 61.285156 20.402344 60.15625 C 20.1875 59.785156 20.007812 59.394531 19.839844 59 C 19.667969 58.507812 19.542969 57.996094 19.46875 57.484375 C 19.59375 57.589844 19.71875 57.6875 19.851562 57.78125 C 21.59375 59.402344 23.375 59.667969 25.8125 59.871094 C 26.40625 59.921875 27.007812 59.980469 27.578125 60.171875 C 27.882812 60.285156 28.164062 60.425781 28.449219 60.574219 C 29.507812 61.125 30.523438 61.75 31.613281 62.238281 C 33.089844 62.902344 34.683594 63.359375 36.300781 63.484375 C 36.945312 63.546875 38.117188 63.515625 38 62.605469 C 37.695312 61.785156 36.367188 60.96875 35.683594 60.386719 C 34.613281 59.550781 33.417969 58.820312 32.640625 57.683594 C 32.644531 57.664062 32.644531 57.640625 32.644531 57.621094 C 32.625 57.246094 32.5625 56.875 32.519531 56.5 C 32.488281 56.261719 32.457031 56.027344 32.425781 55.792969 C 32.652344 55.847656 32.898438 55.859375 33.128906 55.863281 C 33.625 55.863281 34.085938 55.8125 34.570312 55.667969 C 35.207031 55.476562 35.839844 55.277344 36.496094 55.15625 C 36.855469 55.089844 37.261719 55.039062 37.5625 55.289062 C 39.253906 56.464844 40.738281 58.109375 42.816406 58.601562 C 43.261719 58.679688 43.835938 58.730469 44.1875 58.386719 C 44.421875 58.167969 44.492188 57.796875 44.355469 57.503906 C 43.9375 56.707031 43.171875 56.167969 42.539062 55.550781 Z M 42.539062 55.550781 " fill-opacity="1" fill-rule="nonzero"/></g><path fill="#000000" d="M 34.023438 12.257812 C 33.871094 12.210938 34 11.867188 34.042969 11.765625 C 34.054688 11.738281 34.082031 11.722656 34.109375 11.730469 C 34.207031 11.769531 34.101562 11.910156 34.105469 11.984375 C 34.097656 12.039062 34.089844 12.101562 34.09375 12.15625 C 34.105469 12.203125 34.082031 12.261719 34.023438 12.257812 Z M 34.023438 12.257812 " fill-opacity="1" fill-rule="nonzero"/><path fill="#000000" d="M 33.96875 12.261719 C 33.890625 12.167969 33.996094 11.546875 34.140625 11.582031 C 34.171875 11.59375 34.1875 11.628906 34.175781 11.65625 C 34.121094 11.789062 34.082031 11.925781 34.078125 12.070312 C 34.066406 12.136719 34.09375 12.191406 34.074219 12.25 C 34.050781 12.289062 33.992188 12.296875 33.96875 12.261719 Z M 33.96875 12.261719 " fill-opacity="1" fill-rule="nonzero"/><path fill="#000000" d="M 33.96875 12.261719 C 33.871094 12.175781 33.960938 11.582031 34.113281 11.613281 C 34.140625 11.625 34.15625 11.660156 34.144531 11.6875 C 34.101562 11.796875 34.074219 11.898438 34.066406 12.015625 C 34.058594 12.097656 34.082031 12.164062 34.070312 12.238281 C 34.054688 12.277344 34 12.289062 33.96875 12.261719 Z M 33.96875 12.261719 " fill-opacity="1" fill-rule="nonzero"/><path fill="#000000" d="M 33.988281 12.230469 C 33.957031 12.222656 33.9375 12.1875 33.941406 12.160156 C 33.945312 11.914062 34.015625 11.671875 34.152344 11.464844 C 34.167969 11.4375 34.203125 11.425781 34.230469 11.441406 C 34.277344 11.46875 34.257812 11.519531 34.234375 11.554688 C 34.203125 11.625 34.167969 11.703125 34.144531 11.773438 C 34.113281 11.882812 34.089844 11.984375 34.078125 12.09375 C 34.078125 12.152344 34.070312 12.253906 33.988281 12.230469 Z M 33.988281 12.230469 " fill-opacity="1" fill-rule="nonzero"/><path fill="#ffffff" d="M 33.230469 15.199219 C 32.988281 15.089844 32.75 14.988281 32.519531 14.855469 C 32.421875 14.828125 32.398438 14.691406 32.496094 14.640625 C 32.609375 14.582031 32.722656 14.558594 32.839844 14.511719 C 33.046875 14.4375 33.238281 14.316406 33.445312 14.246094 C 33.484375 14.238281 33.519531 14.25 33.546875 14.273438 C 33.652344 14.40625 33.566406 14.601562 33.558594 14.753906 C 33.523438 14.925781 33.5 15.339844 33.230469 15.199219 Z M 33.230469 15.199219 " fill-opacity="1" fill-rule="nonzero"/><path fill="#ffffff" d="M 32.097656 17.058594 C 32.0625 17.054688 32.03125 17.023438 32.039062 16.988281 C 32.074219 16.765625 32.121094 16.542969 32.164062 16.320312 C 32.167969 16.253906 32.273438 16.246094 32.28125 16.316406 C 32.289062 16.339844 32.285156 16.363281 32.28125 16.386719 C 32.253906 16.59375 32.210938 16.804688 32.164062 17.007812 C 32.15625 17.039062 32.128906 17.0625 32.097656 17.058594 Z M 32.097656 17.058594 " fill-opacity="1" fill-rule="nonzero"/><path fill="#ffffff" d="M 31.371094 16.90625 C 31.339844 16.890625 31.328125 16.851562 31.34375 16.820312 C 31.441406 16.621094 31.570312 16.441406 31.675781 16.25 C 31.703125 16.175781 31.820312 16.21875 31.789062 16.292969 C 31.695312 16.5 31.566406 16.6875 31.453125 16.886719 C 31.4375 16.914062 31.398438 16.921875 31.371094 16.90625 Z M 31.371094 16.90625 " fill-opacity="1" fill-rule="nonzero"/><path fill="#ffffff" d="M 30.742188 16.394531 C 30.691406 16.328125 30.777344 16.277344 30.824219 16.242188 C 30.980469 16.136719 31.136719 16.027344 31.304688 15.945312 C 31.332031 15.933594 31.367188 15.945312 31.382812 15.976562 C 31.394531 16.003906 31.382812 16.03125 31.363281 16.054688 C 31.292969 16.117188 31.210938 16.164062 31.136719 16.214844 C 31.035156 16.28125 30.933594 16.34375 30.835938 16.410156 C 30.804688 16.429688 30.765625 16.421875 30.742188 16.394531 Z M 30.742188 16.394531 " fill-opacity="1" fill-rule="nonzero"/><path fill="#ffffff" d="M 35.152344 15.921875 C 35 15.777344 34.847656 15.628906 34.699219 15.480469 C 34.675781 15.460938 34.667969 15.429688 34.683594 15.40625 C 34.75 15.261719 35.105469 15.726562 35.191406 15.785156 C 35.226562 15.820312 35.285156 15.867188 35.242188 15.917969 C 35.21875 15.945312 35.175781 15.945312 35.152344 15.921875 Z M 35.152344 15.921875 " fill-opacity="1" fill-rule="nonzero"/><path fill="#ffffff" d="M 35.390625 15.382812 C 35.226562 15.324219 35.066406 15.246094 34.898438 15.191406 C 34.871094 15.175781 34.855469 15.140625 34.867188 15.113281 C 34.925781 15.011719 35.0625 15.113281 35.144531 15.132812 C 35.246094 15.175781 35.347656 15.214844 35.445312 15.265625 C 35.472656 15.277344 35.484375 15.3125 35.476562 15.34375 C 35.460938 15.378906 35.425781 15.394531 35.390625 15.382812 Z M 35.390625 15.382812 " fill-opacity="1" fill-rule="nonzero"/><path fill="#ffffff" d="M 35.621094 14.863281 C 35.441406 14.84375 35.261719 14.816406 35.082031 14.8125 C 35.039062 14.816406 35.003906 14.78125 35.007812 14.742188 C 35.023438 14.597656 35.515625 14.734375 35.632812 14.730469 C 35.71875 14.738281 35.707031 14.871094 35.621094 14.863281 Z M 35.621094 14.863281 " fill-opacity="1" fill-rule="nonzero"/><path fill="#ffffff" d="M 27.8125 13.386719 C 27.582031 13.285156 27.773438 12.875 27.996094 13 C 28.179688 13.132812 28.058594 13.5 27.8125 13.386719 Z M 27.8125 13.386719 " fill-opacity="1" fill-rule="nonzero"/><path fill="#ffffff" d="M 29.9375 14.582031 C 29.878906 14.558594 29.84375 14.496094 29.855469 14.4375 C 29.828125 14.3125 30.011719 14.273438 30.066406 14.375 C 30.140625 14.464844 30.058594 14.625 29.9375 14.582031 Z M 29.9375 14.582031 " fill-opacity="1" fill-rule="nonzero"/><path fill="#ffffff" d="M 34.324219 11.789062 C 34.144531 11.6875 34.214844 11.34375 34.445312 11.46875 C 34.582031 11.5625 34.511719 11.867188 34.324219 11.789062 Z M 34.324219 11.789062 " fill-opacity="1" fill-rule="nonzero"/><path fill="#ffffff" d="M 35.519531 13 C 35.382812 12.90625 35.484375 12.683594 35.644531 12.769531 C 35.789062 12.855469 35.675781 13.101562 35.519531 13 Z M 35.519531 13 " fill-opacity="1" fill-rule="nonzero"/><path fill="#ffffff" d="M 26.457031 30.394531 C 26.378906 30.386719 26.324219 30.316406 26.273438 30.265625 C 26.09375 30.0625 25.917969 29.839844 25.757812 29.628906 C 25.355469 29.085938 24.964844 28.539062 24.507812 28.042969 C 24.046875 27.539062 23.542969 27.058594 22.996094 26.65625 C 22.550781 26.324219 22.070312 26.035156 21.617188 25.714844 C 21.539062 25.6875 21.570312 25.5625 21.65625 25.59375 C 22.445312 26.035156 23.21875 26.53125 23.886719 27.144531 C 24.667969 27.839844 25.3125 28.660156 25.914062 29.507812 C 25.910156 29.503906 25.910156 29.503906 25.90625 29.5 C 26.050781 29.6875 26.195312 29.875 26.347656 30.054688 C 26.296875 29.78125 26.226562 29.503906 26.226562 29.222656 C 26.292969 28.992188 26.472656 29.1875 26.574219 29.273438 C 26.867188 29.488281 27.207031 29.605469 27.539062 29.738281 C 27.488281 29.605469 27.402344 29.46875 27.398438 29.324219 C 27.40625 29.214844 27.535156 29.195312 27.613281 29.25 C 27.828125 29.347656 28.0625 29.382812 28.289062 29.433594 C 28.328125 29.441406 28.351562 29.480469 28.347656 29.519531 C 28.34375 29.5625 28.304688 29.597656 28.261719 29.589844 C 28.046875 29.554688 27.847656 29.539062 27.644531 29.476562 C 27.6875 29.582031 27.730469 29.683594 27.785156 29.78125 C 27.8125 29.828125 27.84375 29.875 27.824219 29.929688 C 27.804688 29.992188 27.734375 30.011719 27.675781 29.996094 C 27.242188 29.855469 26.796875 29.695312 26.429688 29.417969 C 26.457031 29.609375 26.492188 29.820312 26.535156 30 C 26.566406 30.125 26.671875 30.394531 26.457031 30.394531 Z M 26.457031 30.394531 " fill-opacity="1" fill-rule="nonzero"/><path fill="#ffffff" d="M 28.972656 15.78125 C 27.863281 15.78125 26.960938 14.882812 26.960938 13.78125 C 26.960938 12.679688 27.863281 11.78125 28.972656 11.78125 C 30.085938 11.78125 30.988281 12.679688 30.988281 13.78125 C 30.988281 14.882812 30.085938 15.78125 28.972656 15.78125 Z M 28.972656 12.300781 C 28.152344 12.300781 27.484375 12.964844 27.484375 13.78125 C 27.484375 14.597656 28.152344 15.261719 28.972656 15.261719 C 29.796875 15.261719 30.464844 14.597656 30.464844 13.78125 C 30.464844 12.964844 29.796875 12.300781 28.972656 12.300781 Z M 28.972656 12.300781 " fill-opacity="1" fill-rule="nonzero"/><path fill="#ffffff" d="M 35.140625 14.027344 C 34.808594 14.027344 34.480469 13.898438 34.191406 13.652344 C 33.851562 13.359375 33.609375 12.929688 33.507812 12.441406 C 33.292969 11.414062 33.792969 10.4375 34.621094 10.265625 C 35.445312 10.097656 36.292969 10.796875 36.507812 11.828125 C 36.722656 12.855469 36.222656 13.832031 35.394531 14 C 35.308594 14.019531 35.226562 14.027344 35.140625 14.027344 Z M 34.875 10.761719 C 34.824219 10.761719 34.773438 10.765625 34.726562 10.777344 C 34.179688 10.886719 33.863281 11.589844 34.019531 12.335938 C 34.097656 12.710938 34.28125 13.039062 34.535156 13.257812 C 34.773438 13.460938 35.039062 13.542969 35.289062 13.492188 C 35.835938 13.382812 36.152344 12.679688 35.996094 11.933594 C 35.855469 11.25 35.371094 10.761719 34.875 10.761719 Z M 34.875 10.761719 " fill-opacity="1" fill-rule="nonzero"/><path fill="#000000" d="M 32.8125 53.390625 C 32.8125 53.542969 32.8125 53.699219 32.8125 53.851562 C 32.8125 53.921875 32.75 53.980469 32.683594 53.988281 C 32.605469 53.992188 32.53125 53.933594 32.527344 53.859375 C 32.433594 52.265625 32.390625 50.660156 32.050781 49.09375 C 31.261719 45.617188 29.542969 39.925781 25.152344 39.957031 C 24.179688 39.957031 23.246094 40.273438 22.355469 40.636719 C 22.246094 40.667969 22.128906 40.824219 22.019531 40.71875 C 21.84375 40.445312 22.703125 40.242188 22.875 40.136719 C 23.480469 39.894531 24.125 39.722656 24.777344 39.664062 C 27.929688 39.308594 30.109375 42.136719 31.125 44.761719 C 31.734375 46.28125 32.222656 47.855469 32.5 49.46875 C 32.730469 50.769531 32.785156 52.078125 32.8125 53.390625 Z M 32.8125 53.390625 " fill-opacity="1" fill-rule="nonzero"/><path fill="#ffffff" d="M 32.8125 53.390625 C 32.8125 53.542969 32.8125 53.699219 32.8125 53.851562 C 32.8125 53.921875 32.75 53.980469 32.683594 53.988281 C 32.605469 53.992188 32.53125 53.933594 32.527344 53.859375 C 32.433594 52.265625 32.390625 50.660156 32.050781 49.09375 C 31.261719 45.617188 29.542969 39.925781 25.152344 39.957031 C 24.179688 39.957031 23.246094 40.273438 22.355469 40.636719 C 22.246094 40.667969 22.128906 40.824219 22.019531 40.71875 C 21.84375 40.445312 22.703125 40.242188 22.875 40.136719 C 23.480469 39.894531 24.125 39.722656 24.777344 39.664062 C 27.929688 39.308594 30.109375 42.136719 31.125 44.761719 C 31.734375 46.28125 32.222656 47.855469 32.5 49.46875 C 32.730469 50.769531 32.785156 52.078125 32.8125 53.390625 Z M 32.8125 53.390625 " fill-opacity="1" fill-rule="nonzero"/></svg>