<svg xmlns="http://www.w3.org/2000/svg" xmlns:xlink="http://www.w3.org/1999/xlink" width="500" zoomAndPan="magnify" viewBox="0 0 375 374.999991" height="500" preserveAspectRatio="xMidYMid meet" version="1.0"><defs><clipPath id="d7d587d389"><path d="M 5.277344 58.578125 L 369.71875 58.578125 L 369.71875 316.578125 L 5.277344 316.578125 Z M 5.277344 58.578125 " clip-rule="nonzero"/></clipPath></defs><path fill="#f1f5f9" d="M 172.175781 77.320312 L 309.367188 77.320312 L 309.367188 59.667969 L 172.175781 59.667969 Z M 208.953125 201.035156 L 184.570312 200.804688 L 184.554688 200.570312 L 172.183594 200.570312 L 172.183594 166.523438 C 168.375 165.464844 164.355469 164.300781 161.808594 163.417969 C 155.765625 161.328125 155.074219 156.6875 155.996094 152.042969 C 156.929688 147.398438 168.074219 144.84375 168.074219 144.84375 C 168.074219 144.84375 158.785156 140.199219 159.710938 137.875 C 160.640625 135.554688 166.210938 136.945312 170.394531 138.808594 C 170.96875 139.066406 171.570312 139.339844 172.175781 139.632812 L 172.175781 78.5625 L 309.984375 78.5625 L 309.984375 200.570312 L 208.820312 200.570312 C 208.90625 200.878906 208.953125 201.035156 208.953125 201.035156 Z M 96.933594 87.992188 L 96.933594 87.640625 C 96.933594 79.507812 103.523438 72.917969 111.65625 72.917969 L 144.84375 72.917969 C 152.976562 72.917969 159.566406 79.507812 159.566406 87.640625 L 159.566406 87.992188 C 159.566406 95.097656 154.53125 101.023438 147.839844 102.40625 L 152.96875 111.386719 L 136.140625 102.714844 L 111.644531 102.714844 C 103.523438 102.714844 96.933594 96.121094 96.933594 87.992188 Z M 357.363281 262.359375 C 357.363281 262.359375 355.351562 252.761719 346.835938 252.445312 C 338.320312 252.136719 293.261719 252.914062 293.261719 252.914062 L 290.476562 256.941406 L 305.125 257.046875 C 298.515625 257.273438 293.261719 257.554688 293.261719 257.554688 C 293.261719 257.554688 295.277344 264.371094 292.648438 267.777344 L 309.949219 268.257812 C 300.054688 268.210938 290.015625 268.085938 290.015625 268.085938 C 290.015625 268.085938 287.695312 271.179688 292.648438 272.113281 C 297.597656 273.042969 347.769531 273.503906 347.769531 273.503906 C 347.769531 273.503906 356.75 272.886719 357.363281 262.359375 Z M 334.109375 267.019531 C 334.867188 266.246094 335.527344 265.179688 335.75 263.75 C 335.585938 265.3125 335.226562 266.335938 334.109375 267.019531 Z M 330.890625 257.25 C 330.890625 257.25 332.664062 257.566406 334.09375 258.714844 C 333.171875 258.105469 331.804688 257.574219 329.808594 257.25 C 329.792969 257.25 329.765625 257.238281 329.742188 257.238281 Z M 305.03125 289.296875 C 305.03125 289.296875 298.839844 287.136719 300.078125 282.484375 C 301.320312 277.839844 306.121094 277.839844 306.121094 277.839844 L 343.132812 278.144531 C 343.132812 278.144531 341.425781 284.1875 342.972656 288.984375 Z M 288.3125 305.402344 C 288.3125 311.753906 294.503906 314.847656 294.503906 314.847656 L 352.570312 315.15625 L 355.667969 310.355469 L 348.285156 310.355469 L 351.796875 309.421875 C 348.859375 306.019531 351.636719 299.042969 351.636719 299.042969 L 314.628906 299.203125 L 354.882812 298.738281 C 354.882812 298.738281 353.800781 294.402344 348.382812 293.933594 C 342.964844 293.46875 294.960938 294.867188 294.960938 294.867188 C 294.960938 294.867188 288.3125 299.054688 288.3125 305.402344 Z M 309.785156 301.625 C 309.449219 302.214844 309.191406 302.941406 309.058594 303.855469 C 309.117188 302.941406 309.394531 302.214844 309.785156 301.625 Z M 167.617188 244.238281 L 185.96875 262.125 L 176.871094 284.429688 C 181.207031 274.242188 188.289062 257.871094 188.289062 257.871094 C 188.289062 257.871094 188.597656 256.324219 196.335938 256.324219 C 204.078125 256.324219 265.707031 256.941406 265.707031 256.941406 C 265.707031 256.941406 270.976562 257.25 269.734375 263.132812 L 253.015625 305.5625 L 249.292969 306.800781 C 249.292969 306.800781 248.988281 313.925781 246.816406 314.847656 C 244.652344 315.78125 150.503906 315.15625 150.503906 315.15625 C 150.503906 315.15625 147.714844 312.371094 147.410156 308.339844 C 147.101562 304.3125 148.957031 303.074219 148.957031 303.074219 L 170.636719 303.378906 C 170.636719 303.378906 172.183594 295.949219 173.734375 291.921875 C 173.808594 291.710938 173.925781 291.429688 174.066406 291.097656 L 146.484375 265.371094 C 148.796875 253.527344 167.617188 244.238281 167.617188 244.238281 Z M 39.40625 260.269531 C 39.40625 260.269531 48.695312 258.179688 56.824219 259.570312 C 64.957031 260.960938 71.457031 270.023438 71.457031 270.023438 L 64.023438 289.53125 C 64.023438 289.53125 88.410156 289.996094 94.453125 288.140625 C 100.492188 286.285156 103.738281 276.066406 107.691406 271.886719 C 111.644531 267.710938 116.980469 271.1875 122.324219 274.210938 C 127.667969 277.230469 127.433594 285.363281 127.433594 285.363281 L 122.558594 282.339844 C 118.835938 276.53125 114.660156 278.621094 114.660156 278.621094 C 119.304688 280.476562 119.535156 286.519531 119.535156 286.519531 C 119.535156 286.519531 118.371094 295.117188 113.960938 296.273438 C 109.550781 297.4375 107.460938 300.917969 107.460938 300.917969 C 106.292969 306.492188 96.773438 307.648438 96.773438 307.648438 C 96.773438 307.648438 64.257812 313.460938 49.160156 313.226562 C 34.0625 312.992188 30.574219 304.40625 30.574219 296.972656 C 30.574219 289.53125 39.40625 260.269531 39.40625 260.269531 Z M 112.105469 197.558594 C 112.105469 197.558594 109.316406 206.15625 110.015625 210.566406 C 110.714844 214.976562 113.960938 215.445312 113.960938 215.445312 L 121.859375 215.675781 C 121.859375 215.675781 121.390625 223.109375 109.082031 223.808594 C 96.773438 224.507812 89.808594 219.398438 84.230469 215.675781 C 84.230469 215.675781 92.128906 215.675781 93.519531 211.265625 C 94.910156 206.855469 97.929688 198.722656 95.839844 194.777344 C 95.839844 194.777344 95.375 193.613281 92.355469 193.15625 C 89.332031 192.6875 86.085938 191.300781 86.085938 186.886719 C 86.085938 182.476562 89.109375 179.6875 97.007812 186.65625 L 92.128906 165.058594 C 92.128906 165.058594 93.753906 158.09375 120.003906 159.015625 C 120.003906 159.015625 128.367188 174.347656 127.902344 181.777344 C 127.433594 189.195312 125.113281 196.625 112.105469 197.558594 Z M 112.105469 197.558594 " fill-opacity="1" fill-rule="evenodd"/><path fill="#9f9a7f" d="M 268.71875 68.964844 C 268.71875 70.886719 270.277344 72.453125 272.207031 72.453125 C 274.128906 72.453125 275.695312 70.894531 275.695312 68.964844 C 275.695312 67.035156 274.136719 65.476562 272.207031 65.476562 C 270.285156 65.476562 268.71875 67.035156 268.71875 68.964844 Z M 283.507812 65.402344 C 285.433594 65.402344 286.996094 66.960938 286.996094 68.890625 C 286.996094 70.820312 285.441406 72.378906 283.507812 72.378906 C 281.585938 72.378906 280.023438 70.820312 280.023438 68.890625 C 280.023438 66.960938 281.585938 65.402344 283.507812 65.402344 Z M 294.429688 65.402344 C 296.351562 65.402344 297.914062 66.960938 297.914062 68.890625 C 297.914062 70.820312 296.359375 72.378906 294.429688 72.378906 C 292.507812 72.378906 290.941406 70.820312 290.941406 68.890625 C 290.941406 66.960938 292.507812 65.402344 294.429688 65.402344 Z M 284.980469 152.035156 C 290.25 159.699219 300.15625 199.953125 300.15625 199.953125 L 286.679688 199.796875 C 286.679688 199.796875 258.882812 172.855469 255.246094 170.917969 C 251.609375 168.976562 243.242188 170.453125 241.386719 170.84375 C 239.53125 171.234375 232.875 168.753906 232.875 168.753906 C 232.875 168.753906 231.25 169.6875 231.632812 172.316406 C 232.023438 174.945312 239.140625 176.652344 239.140625 176.652344 L 226.132812 183.46875 C 226.132812 183.46875 222.644531 188.1875 223.886719 189.816406 C 225.125 191.441406 229.378906 189.660156 229.378906 189.660156 C 229.378906 189.660156 232.167969 192.914062 237.976562 195.46875 C 243.785156 198.023438 252.140625 196.632812 252.140625 196.632812 L 255.628906 200.121094 L 208.945312 201.054688 L 195.9375 157.160156 L 204.761719 148.105469 L 206.617188 165.757812 L 219.859375 165.992188 L 223.800781 151.359375 L 233.324219 150.660156 L 231.46875 159.949219 C 238.199219 161.339844 248.1875 158.324219 248.1875 158.324219 L 250.511719 147.40625 C 259.796875 146.472656 269.320312 137.417969 269.320312 137.417969 C 274.144531 139.183594 284.980469 152.035156 284.980469 152.035156 Z M 329.375 227.519531 C 336.492188 227.519531 342.265625 233.03125 342.265625 239.828125 C 342.265625 246.628906 336.5 252.136719 329.375 252.136719 C 322.25 252.136719 316.484375 246.628906 316.484375 239.828125 C 316.492188 233.03125 322.257812 227.519531 329.375 227.519531 Z M 337.855469 225.886719 C 344.355469 218.222656 355.042969 223.332031 355.042969 223.332031 C 347.378906 232.398438 337.855469 225.886719 337.855469 225.886719 Z M 343.589844 272.886719 C 343.589844 272.886719 345.136719 276.140625 345.296875 277.53125 L 304.265625 278.304688 C 304.265625 278.304688 299.773438 281.402344 300.238281 284.960938 C 300.703125 288.523438 303.492188 289.765625 308.136719 289.605469 C 312.78125 289.449219 346.070312 289.140625 346.070312 289.140625 C 346.070312 289.140625 344.988281 294.09375 341.269531 294.25 C 337.546875 294.410156 289.710938 293.941406 289.710938 293.941406 C 289.710938 293.941406 277.941406 292.394531 279.179688 283.257812 C 280.421875 274.117188 290.175781 273.34375 290.175781 273.34375 Z M 167.617188 244.238281 C 167.617188 244.238281 149.964844 251.207031 146.476562 265.378906 L 139.511719 260.734375 L 135.332031 293.019531 L 127.433594 285.355469 C 127.433594 285.355469 128.597656 278.386719 123.714844 275.367188 C 118.835938 272.34375 112.792969 270.722656 112.792969 270.722656 L 105.828125 263.523438 L 101.652344 266.078125 L 107.691406 271.886719 C 107.691406 271.886719 101.425781 285.820312 94.453125 288.140625 C 87.484375 290.464844 64.023438 289.53125 64.023438 289.53125 L 71.457031 270.023438 C 71.457031 270.023438 60.304688 254.691406 39.40625 260.269531 C 39.40625 260.269531 48.695312 231.929688 54.734375 226.363281 C 60.777344 220.796875 70.765625 216.839844 76.101562 216.144531 C 81.433594 215.445312 84.230469 215.675781 84.230469 215.675781 C 84.230469 215.675781 94.21875 226.363281 109.082031 223.808594 C 123.945312 221.253906 121.859375 215.675781 121.859375 215.675781 C 121.859375 215.675781 143.457031 208.710938 169.238281 245.171875 M 135.097656 300.449219 L 133.242188 315.316406 L 60.777344 314.847656 L 64.03125 312.292969 L 94.226562 308.574219 C 94.226562 308.574219 105.835938 307.410156 107.46875 300.910156 L 113.96875 296.265625 L 118.378906 291.621094 L 119.542969 286.511719 Z M 135.097656 300.449219 " fill-opacity="1" fill-rule="evenodd"/><path fill="#000000" d="M 201.753906 96.054688 C 198.269531 109.0625 206.632812 165.730469 206.632812 165.730469 L 219.875 165.964844 L 225.917969 141.578125 L 232.882812 137.636719 L 229.859375 127.648438 C 229.859375 127.648438 221.265625 129.738281 216.386719 125.792969 C 211.511719 121.847656 208.953125 116.738281 208.023438 111.394531 C 207.089844 106.050781 209.1875 101.640625 209.1875 101.640625 L 236.359375 106.75 C 236.359375 106.75 243.328125 100.25 245.183594 105.125 C 247.039062 110.003906 239.375 114.878906 239.375 114.878906 L 231.476562 159.941406 C 231.476562 159.941406 241.695312 163.425781 248.195312 158.316406 L 252.28125 136.535156 C 252.707031 134.257812 254.996094 132.832031 257.226562 133.457031 L 267.246094 136.246094 C 267.246094 136.246094 249.828125 88.632812 244.949219 83.289062 C 240.074219 77.945312 237.75 73.765625 231.242188 74.464844 C 224.75 75.15625 205.234375 83.054688 201.753906 96.054688 Z M 120.234375 279.777344 C 123.257812 282.796875 127.433594 285.355469 127.433594 285.355469 L 138.8125 298.128906 L 140.433594 302.539062 L 136.714844 302.539062 L 119.527344 286.511719 L 114.652344 278.613281 C 114.660156 278.613281 117.214844 276.757812 120.234375 279.777344 Z M 112.804688 270.714844 L 107.691406 271.878906 L 101.652344 266.070312 L 105.828125 263.515625 Z M 89.339844 149.710938 C 100.261719 142.046875 112.105469 141.578125 115.816406 143.210938 C 119.535156 144.835938 118.605469 147.390625 119.761719 149.710938 C 120.925781 152.035156 122.082031 149.710938 124.871094 153.429688 C 127.660156 157.152344 123.480469 162.488281 123.480469 162.488281 L 119.992188 159 C 119.992188 159 99.320312 159.464844 94.910156 161.320312 C 90.5 163.175781 92.820312 167.363281 92.820312 167.363281 L 97 186.640625 C 90.957031 181.296875 86.777344 183.152344 86.777344 183.152344 C 86.777344 183.152344 84.6875 180.828125 80.734375 174.789062 C 76.78125 168.746094 78.421875 157.375 89.339844 149.710938 Z M 89.339844 149.710938 " fill-opacity="1" fill-rule="evenodd"/><g clip-path="url(#d7d587d389)"><path fill="#000000" d="M 6.496094 313.910156 L 43.957031 313.910156 C 38.691406 312.984375 34.828125 310.847656 32.449219 307.527344 C 29.320312 303.164062 28.746094 296.957031 30.683594 288.550781 C 33.796875 275.066406 45.148438 234.179688 56.117188 223.523438 C 63.441406 216.410156 75.21875 215.253906 83.007812 214.488281 C 86.320312 214.160156 90.082031 213.796875 90.738281 213.054688 C 92.761719 210.808594 96.472656 198.199219 94.578125 194.828125 C 94.359375 194.4375 94.101562 194.238281 93.445312 194.363281 C 90.125 194.988281 87.234375 193.429688 85.90625 190.277344 C 84.945312 188.011719 85.039062 185.558594 86.003906 183.875 C 83.457031 182.1875 78.570312 177.535156 78.570312 166.648438 C 78.570312 161.480469 81.210938 156.269531 86.195312 151.582031 C 93.210938 144.992188 103.757812 140.546875 111.253906 141.023438 C 113.726562 141.179688 118.871094 141.496094 120.21875 145.824219 C 120.5 146.730469 120.542969 147.5625 120.585938 148.296875 C 120.660156 149.800781 120.675781 150.160156 122.265625 150.511719 C 124.886719 151.09375 126.003906 152.566406 126.476562 153.707031 C 127.902344 157.09375 125.652344 161.652344 124.347656 163.859375 C 126.300781 167.855469 128.476562 173.414062 129.140625 179.375 C 129.765625 185.015625 128.675781 189.59375 125.894531 192.980469 C 123.15625 196.308594 118.945312 198.316406 113.359375 198.949219 C 111.53125 204.992188 110.414062 211.988281 111.746094 213.320312 C 112.851562 214.429688 114.316406 214.335938 117.503906 214.019531 C 119.984375 213.769531 123.066406 213.472656 127.09375 213.886719 C 136.023438 214.8125 145.984375 217.132812 160.734375 234.128906 C 173.007812 248.269531 183.078125 258.363281 185.5 260.761719 L 186.316406 258.753906 C 187.273438 256.382812 189.546875 254.859375 192.101562 254.859375 C 192.109375 254.859375 192.125 254.859375 192.132812 254.859375 L 265.089844 255.265625 C 267.148438 255.277344 269.070312 256.300781 270.226562 258.003906 C 271.382812 259.710938 271.625 261.867188 270.875 263.78125 L 255.253906 303.761719 C 254.464844 305.777344 252.742188 307.183594 250.683594 307.601562 L 250.683594 309.046875 C 250.683594 310.9375 249.933594 312.652344 248.71875 313.917969 L 291.75 313.917969 C 288.910156 311.820312 287.054688 308.464844 287.054688 304.671875 C 287.054688 300.691406 289.085938 297.179688 292.164062 295.117188 L 289.578125 295.117188 C 283.234375 295.117188 278.074219 289.957031 278.074219 283.613281 C 278.074219 277.273438 283.234375 272.113281 289.578125 272.113281 L 290.300781 272.113281 C 289.433594 271.054688 288.910156 269.699219 288.910156 268.226562 C 288.910156 267.535156 289.46875 266.976562 290.160156 266.976562 L 292.125 266.976562 C 292.546875 266.019531 293.097656 264.605469 293.355469 263.265625 C 293.621094 261.851562 292.804688 259.6875 292.230469 258.4375 L 290.484375 258.4375 C 289.792969 258.4375 289.234375 257.878906 289.234375 257.191406 C 289.234375 253.976562 291.847656 251.363281 295.0625 251.363281 L 321.894531 251.363281 C 317.691406 249.09375 314.851562 244.878906 314.851562 240.070312 C 314.851562 232.855469 321.210938 226.980469 329.035156 226.980469 C 329.433594 226.980469 329.824219 227.003906 330.214844 227.035156 C 331.140625 225.257812 333.59375 222.632812 334.402344 221.792969 C 334.886719 221.292969 335.667969 221.277344 336.167969 221.761719 C 336.664062 222.234375 336.683594 223.027344 336.199219 223.523438 C 334.96875 224.804688 333.601562 226.40625 332.855469 227.488281 C 338.8125 229.035156 343.199219 234.085938 343.199219 240.078125 C 343.199219 244.898438 340.359375 249.101562 336.160156 251.371094 L 346.804688 251.371094 C 353.144531 251.371094 358.304688 256.53125 358.304688 262.875 C 358.304688 269.214844 353.144531 274.375 346.804688 274.375 L 345.921875 274.375 C 346.6875 275.367188 347.152344 276.597656 347.152344 277.945312 C 347.152344 278.636719 346.59375 279.195312 345.902344 279.195312 L 344.15625 279.195312 C 343.574219 280.445312 342.765625 282.617188 343.03125 284.023438 C 343.28125 285.363281 343.839844 286.785156 344.265625 287.734375 L 346.210938 287.734375 C 346.902344 287.734375 347.460938 288.292969 347.460938 288.984375 C 347.460938 290.605469 346.820312 292.078125 345.796875 293.175781 L 350.308594 293.175781 C 353.519531 293.175781 356.132812 295.789062 356.132812 299.003906 C 356.132812 299.695312 355.574219 300.25 354.882812 300.25 L 353.136719 300.25 C 352.554688 301.5 351.746094 303.671875 352.011719 305.078125 C 352.261719 306.417969 352.820312 307.839844 353.246094 308.789062 L 355.207031 308.789062 C 355.898438 308.789062 356.457031 309.347656 356.457031 310.039062 C 356.457031 311.511719 355.933594 312.859375 355.066406 313.925781 L 368.515625 313.925781 C 369.207031 313.925781 369.765625 314.484375 369.765625 315.175781 C 369.765625 315.863281 369.207031 316.421875 368.515625 316.421875 L 6.496094 316.421875 C 5.808594 316.421875 5.25 315.863281 5.25 315.175781 C 5.25 314.484375 5.816406 313.910156 6.496094 313.910156 Z M 340.710938 240.0625 C 340.710938 234.21875 335.46875 229.46875 329.035156 229.46875 C 322.59375 229.46875 317.347656 234.21875 317.347656 240.0625 C 317.347656 245.90625 322.59375 250.65625 329.035156 250.65625 C 335.476562 250.65625 340.710938 245.90625 340.710938 240.0625 Z M 280.578125 283.605469 C 280.578125 288.574219 284.617188 292.609375 289.585938 292.609375 L 341.328125 292.609375 C 342.898438 292.609375 344.238281 291.613281 344.746094 290.214844 L 344.65625 290.214844 C 344.421875 290.503906 344.074219 290.6875 343.691406 290.6875 L 305.597656 290.6875 C 301.734375 290.6875 298.589844 287.542969 298.589844 283.679688 C 298.589844 279.820312 301.734375 276.671875 305.597656 276.671875 L 344.40625 276.671875 C 343.914062 275.457031 342.714844 274.59375 341.328125 274.59375 L 300.746094 274.59375 C 300.703125 274.617188 300.671875 274.640625 300.628906 274.660156 C 300.378906 274.757812 294.585938 277.324219 297.109375 287.402344 C 297.273438 288.066406 296.867188 288.75 296.203125 288.914062 C 296.101562 288.941406 295.992188 288.949219 295.894531 288.949219 C 295.335938 288.949219 294.828125 288.566406 294.6875 288 C 292.914062 280.917969 294.828125 276.804688 296.785156 274.59375 L 289.59375 274.59375 C 284.625 274.601562 280.578125 278.636719 280.578125 283.605469 Z M 341.433594 279.179688 L 305.597656 279.179688 C 303.109375 279.179688 301.085938 281.199219 301.085938 283.6875 C 301.085938 286.179688 303.109375 288.199219 305.597656 288.199219 L 341.734375 288.199219 C 341.300781 287.160156 340.820312 285.804688 340.570312 284.472656 C 340.246094 282.730469 340.851562 280.652344 341.433594 279.179688 Z M 355.808594 262.859375 C 355.808594 257.890625 351.773438 253.851562 346.804688 253.851562 L 339.644531 253.851562 C 339.929688 254.167969 340.203125 254.511719 340.46875 254.910156 C 341.902344 257.066406 343.28125 260.953125 341.710938 267.261719 C 341.566406 267.828125 341.058594 268.210938 340.503906 268.210938 C 340.402344 268.210938 340.304688 268.199219 340.195312 268.175781 C 339.527344 268.007812 339.121094 267.328125 339.289062 266.660156 C 341.800781 256.605469 336.035156 254.035156 335.765625 253.925781 C 335.726562 253.910156 335.683594 253.886719 335.640625 253.859375 L 295.070312 253.859375 C 293.679688 253.859375 292.480469 254.71875 291.988281 255.941406 L 330.789062 255.941406 C 334.652344 255.941406 337.796875 259.085938 337.796875 262.949219 C 337.796875 266.8125 334.652344 269.957031 330.789062 269.957031 L 292.699219 269.957031 C 292.316406 269.957031 291.964844 269.773438 291.730469 269.484375 L 291.640625 269.484375 C 292.148438 270.878906 293.488281 271.878906 295.0625 271.878906 L 346.804688 271.878906 C 351.761719 271.863281 355.808594 267.816406 355.808594 262.859375 Z M 295.816406 263.714844 C 295.570312 265.046875 295.085938 266.402344 294.652344 267.445312 L 330.789062 267.445312 C 333.277344 267.445312 335.300781 265.421875 335.300781 262.933594 C 335.300781 260.445312 333.277344 258.421875 330.789062 258.421875 L 294.960938 258.421875 C 295.535156 259.902344 296.144531 261.984375 295.816406 263.714844 Z M 350.308594 295.65625 L 309.726562 295.65625 C 309.683594 295.683594 309.652344 295.707031 309.609375 295.722656 C 309.359375 295.824219 303.566406 298.386719 306.089844 308.457031 C 306.253906 309.125 305.847656 309.804688 305.179688 309.972656 C 305.082031 309.996094 304.972656 310.003906 304.875 310.003906 C 304.316406 310.003906 303.808594 309.621094 303.667969 309.058594 C 301.894531 301.972656 303.808594 297.863281 305.765625 295.648438 L 298.574219 295.648438 C 293.613281 295.648438 289.566406 299.683594 289.566406 304.652344 C 289.566406 309.613281 293.605469 313.660156 298.574219 313.660156 L 350.308594 313.660156 C 351.878906 313.660156 353.21875 312.660156 353.726562 311.261719 L 353.636719 311.261719 C 353.402344 311.554688 353.054688 311.738281 352.671875 311.738281 L 314.578125 311.738281 C 310.714844 311.738281 307.570312 308.589844 307.570312 304.730469 C 307.570312 300.867188 310.714844 297.722656 314.578125 297.722656 L 353.386719 297.722656 C 352.894531 296.515625 351.695312 295.65625 350.308594 295.65625 Z M 350.414062 300.234375 L 314.585938 300.234375 C 312.097656 300.234375 310.074219 302.257812 310.074219 304.746094 C 310.074219 307.234375 312.097656 309.257812 314.585938 309.257812 L 350.722656 309.257812 C 350.289062 308.214844 349.808594 306.859375 349.558594 305.527344 C 349.226562 303.789062 349.832031 301.707031 350.414062 300.234375 Z M 131.96875 313.910156 L 133.375 300.640625 L 120.203125 287.816406 C 120.21875 288.523438 120.203125 289.25 120.160156 289.996094 C 119.851562 295.339844 113.445312 298.746094 109.648438 300.300781 C 109.148438 300.507812 108.757812 300.941406 108.558594 301.53125 C 106.160156 308.648438 98.605469 309.289062 96.347656 309.316406 C 95.648438 309.324219 95.019531 309.382812 94.402344 309.496094 C 90.625 310.195312 76.300781 312.769531 63.117188 313.917969 L 131.96875 313.917969 Z M 127.042969 287.011719 C 124.953125 287.285156 122.566406 284.296875 121.292969 282.414062 C 119.867188 280.320312 118.136719 279.535156 116.773438 279.269531 C 118.230469 280.675781 119.121094 282.242188 119.636719 283.957031 C 119.800781 284.015625 119.960938 284.097656 120.101562 284.230469 L 137.386719 301.066406 L 138.554688 301.066406 L 137.789062 298.777344 Z M 34.480469 306.078125 C 36.765625 309.265625 40.835938 311.179688 46.578125 311.753906 C 60.210938 313.109375 88.433594 308.066406 93.953125 307.042969 C 94.710938 306.902344 95.484375 306.828125 96.324219 306.816406 C 98.6875 306.792969 104.371094 306.144531 106.195312 300.734375 C 106.277344 300.484375 106.386719 300.25 106.511719 300.019531 C 104.789062 299.492188 102.226562 298.4375 101.125 296.597656 C 100.769531 296.007812 100.960938 295.242188 101.550781 294.882812 C 102.140625 294.527344 102.90625 294.71875 103.265625 295.308594 C 104.0625 296.648438 106.976562 297.65625 108.625 297.980469 C 108.640625 297.980469 108.660156 297.988281 108.675781 297.996094 C 108.683594 297.996094 108.691406 297.988281 108.699219 297.980469 C 109.515625 297.644531 111.0625 296.957031 112.644531 295.980469 C 112.179688 294.75 110.238281 290.347656 105.636719 287.917969 C 105.03125 287.59375 104.796875 286.84375 105.113281 286.226562 C 105.4375 285.621094 106.1875 285.378906 106.800781 285.703125 C 111.597656 288.226562 113.894531 292.503906 114.742188 294.492188 C 115.589844 293.792969 116.339844 293.011719 116.871094 292.160156 C 116.539062 290.980469 114.394531 284.238281 108.074219 282.589844 C 107.410156 282.414062 107.011719 281.734375 107.183594 281.066406 C 107.359375 280.402344 108.042969 280.003906 108.707031 280.175781 C 113.425781 281.410156 116.183594 284.8125 117.707031 287.625 C 117.554688 283.414062 115.941406 280.492188 110.222656 278.046875 C 109.589844 277.773438 109.300781 277.039062 109.566406 276.40625 C 109.839844 275.773438 110.574219 275.484375 111.207031 275.75 C 112.085938 276.125 112.878906 276.523438 113.601562 276.929688 C 113.71875 276.855469 113.851562 276.789062 114 276.757812 C 114.234375 276.707031 119.675781 275.550781 123.363281 280.992188 C 124.679688 282.941406 125.871094 284.023438 126.476562 284.378906 C 126.503906 284.207031 126.519531 283.957031 126.503906 283.597656 C 126.359375 279.746094 122.175781 273.652344 114.667969 272.238281 C 111.496094 271.636719 109.808594 271.921875 108.582031 273.011719 C 108.542969 273.0625 108.523438 273.121094 108.476562 273.160156 C 108.433594 273.195312 108.390625 273.210938 108.34375 273.246094 C 107.46875 274.144531 106.8125 275.476562 105.945312 277.257812 C 105.453125 278.261719 104.90625 279.394531 104.222656 280.601562 C 100.558594 287.125 90.640625 294.042969 90.214844 294.335938 C 90 294.484375 89.75 294.558594 89.507812 294.558594 C 89.117188 294.558594 88.726562 294.367188 88.484375 294.019531 C 88.09375 293.453125 88.234375 292.667969 88.800781 292.277344 C 88.832031 292.253906 90 291.445312 91.648438 290.148438 L 59.039062 290.988281 C 59.03125 290.988281 59.015625 290.988281 59.003906 290.988281 C 58.332031 290.988281 57.773438 290.449219 57.757812 289.773438 C 57.742188 289.082031 58.28125 288.507812 58.972656 288.492188 L 63.257812 288.382812 C 63.257812 288.375 63.257812 288.367188 63.265625 288.359375 L 70.074219 270.972656 C 70.023438 270.921875 69.976562 270.878906 69.933594 270.824219 C 69.476562 270.214844 58.480469 256.007812 41.035156 261.175781 C 37.183594 273.019531 34.246094 284.238281 33.128906 289.089844 C 31.339844 296.78125 31.789062 302.332031 34.480469 306.078125 Z M 107.710938 270.53125 C 108.257812 270.171875 108.882812 269.898438 109.605469 269.714844 L 105.179688 264.871094 L 103.671875 266.179688 Z M 124.171875 154.679688 C 123.804688 153.804688 123 153.238281 121.714844 152.957031 C 118.28125 152.191406 118.164062 150.019531 118.089844 148.429688 C 118.054688 147.8125 118.019531 147.179688 117.839844 146.582031 C 117.140625 144.351562 114.640625 143.753906 111.097656 143.527344 C 104.339844 143.101562 94.359375 147.355469 87.902344 153.421875 C 84.78125 156.351562 81.070312 161.03125 81.070312 166.671875 C 81.070312 177.527344 86.296875 181.253906 87.925781 182.152344 C 90.214844 181.1875 93.238281 182.542969 95.535156 184 C 93.054688 175.769531 90.289062 164.867188 92.269531 162.601562 C 92.3125 162.554688 92.363281 162.503906 92.421875 162.460938 C 97.855469 157.984375 117.582031 157.285156 119.8125 157.21875 C 120.242188 157.191406 120.632812 157.410156 120.875 157.757812 C 120.976562 157.902344 121.824219 159.15625 122.957031 161.195312 C 124.082031 158.925781 124.863281 156.320312 124.171875 154.679688 Z M 109.980469 215.085938 C 106.894531 211.996094 110.15625 200.777344 111.222656 197.410156 C 111.371094 196.925781 111.804688 196.585938 112.304688 196.542969 C 117.613281 196.085938 121.535156 194.355469 123.964844 191.398438 C 126.300781 188.554688 127.203125 184.601562 126.652344 179.65625 C 125.628906 170.433594 120.59375 161.953125 119.179688 159.730469 C 112.9375 159.964844 98.238281 161.148438 94.144531 164.265625 C 93.3125 166.148438 96.015625 177.382812 99.046875 186.878906 C 99.210938 187.414062 99.011719 187.996094 98.546875 188.304688 C 98.082031 188.609375 97.464844 188.570312 97.039062 188.203125 C 94.585938 186.089844 90.222656 183.46875 88.660156 184.566406 C 87.628906 185.289062 87.417969 187.460938 88.203125 189.320312 C 88.609375 190.292969 89.90625 192.507812 92.980469 191.914062 C 94.617188 191.609375 95.957031 192.207031 96.75 193.605469 C 99.429688 198.355469 94.992188 212.054688 92.585938 214.726562 C 91.65625 215.761719 89.75 216.21875 86.984375 216.566406 C 89.425781 218.671875 95.375 222.683594 105.828125 223.332031 C 116.804688 224 119.769531 218.574219 120.527344 216.265625 C 119.519531 216.335938 118.59375 216.425781 117.746094 216.507812 C 114.527344 216.824219 111.972656 217.074219 109.980469 215.085938 Z M 126.835938 216.375 C 125.496094 216.234375 124.273438 216.183594 123.132812 216.183594 C 122.898438 217.167969 122.234375 219.222656 120.433594 221.195312 C 118.4375 223.390625 114.625 225.878906 107.625 225.878906 C 107.003906 225.878906 106.34375 225.863281 105.671875 225.820312 C 90.898438 224.90625 84.507812 217.78125 83.78125 216.917969 C 83.597656 216.933594 83.433594 216.949219 83.25 216.964844 C 81.710938 217.117188 80.0625 217.28125 78.355469 217.492188 C 79.328125 218.6875 81.359375 220.9375 84.523438 223.175781 C 88.757812 226.164062 95.964844 229.75 106.226562 229.824219 C 106.328125 229.824219 106.429688 229.824219 106.527344 229.824219 C 122.65625 229.824219 127.394531 219.914062 128.53125 216.558594 C 127.957031 216.492188 127.402344 216.433594 126.835938 216.375 Z M 158.851562 235.765625 C 146.984375 222.09375 138.445312 218.332031 131.019531 216.957031 C 130.554688 218.421875 129.382812 221.359375 126.800781 224.300781 C 123.574219 227.976562 117.4375 232.332031 106.519531 232.332031 C 106.417969 232.332031 106.3125 232.332031 106.203125 232.332031 C 85.1875 232.171875 75.976562 218.566406 75.59375 217.992188 C 75.574219 217.957031 75.558594 217.921875 75.542969 217.890625 C 69.234375 218.878906 62.527344 220.761719 57.839844 225.3125 C 52.304688 230.691406 46.5625 244.640625 41.953125 258.363281 C 57.40625 254.691406 68.136719 265.070312 71.082031 268.367188 L 73.621094 261.902344 C 73.871094 261.257812 74.59375 260.945312 75.234375 261.191406 C 75.875 261.441406 76.191406 262.167969 75.941406 262.808594 L 65.9375 288.332031 L 94.734375 287.59375 C 97.464844 285.203125 100.445312 282.214844 102.023438 279.402344 C 102.667969 278.253906 103.207031 277.15625 103.679688 276.183594 C 104.40625 274.699219 105.070312 273.351562 105.894531 272.261719 L 100.960938 266.925781 C 100.726562 266.679688 100.609375 266.34375 100.628906 266.011719 C 100.644531 265.671875 100.800781 265.355469 101.058594 265.136719 L 104.464844 262.191406 C 104.980469 261.75 105.746094 261.792969 106.203125 262.292969 L 112.703125 269.414062 C 112.726562 269.441406 112.738281 269.472656 112.753906 269.5 C 113.46875 269.550781 114.242188 269.640625 115.109375 269.808594 C 124.296875 271.539062 128.816406 279.019531 128.972656 283.53125 C 129 284.207031 128.941406 284.78125 128.816406 285.261719 L 134.316406 291.28125 L 138.410156 250.921875 C 138.429688 250.765625 138.46875 250.605469 138.546875 250.472656 L 141.949219 243.972656 C 142.265625 243.367188 143.023438 243.125 143.636719 243.449219 C 144.246094 243.765625 144.488281 244.523438 144.164062 245.140625 L 140.867188 251.429688 L 140.042969 259.578125 L 145.210938 264.054688 C 150.761719 249.832031 161.722656 245.472656 166.335938 244.238281 C 163.988281 241.609375 161.464844 238.78125 158.851562 235.765625 Z M 184.320312 263.097656 C 184.238281 263.015625 177.660156 256.605469 168.273438 246.34375 C 165.535156 246.878906 152.933594 250.140625 147.242188 265.796875 L 174.050781 289.023438 L 184.511719 263.230469 C 184.445312 263.175781 184.371094 263.148438 184.320312 263.097656 Z M 252.933594 302.855469 L 268.554688 262.875 C 269.011719 261.710938 268.871094 260.445312 268.164062 259.402344 C 267.453125 258.363281 266.332031 257.765625 265.082031 257.765625 L 192.125 257.355469 C 192.117188 257.355469 192.109375 257.355469 192.101562 257.355469 C 190.570312 257.355469 189.207031 258.273438 188.628906 259.695312 L 172.25 300.085938 C 171.886719 300.992188 171.886719 301.964844 172.234375 302.847656 C 172.402344 303.023438 172.511719 303.238281 172.558594 303.480469 C 172.585938 303.515625 172.601562 303.554688 172.625 303.589844 C 173.332031 304.636719 174.464844 305.246094 175.738281 305.246094 L 249.453125 305.246094 C 250.992188 305.238281 252.367188 304.304688 252.933594 302.855469 Z M 248.1875 307.734375 L 175.722656 307.734375 C 173.640625 307.734375 171.703125 306.703125 170.546875 304.980469 C 170.539062 304.96875 170.539062 304.953125 170.527344 304.945312 L 149.390625 304.945312 C 148.855469 304.945312 148.414062 305.378906 148.414062 305.910156 L 148.414062 309.804688 C 148.414062 311.894531 150.113281 313.601562 152.210938 313.601562 L 243.636719 313.601562 C 246.148438 313.601562 248.195312 311.554688 248.195312 309.039062 L 248.195312 307.734375 Z M 149.390625 302.449219 L 169.5625 302.449219 C 169.390625 301.351562 169.503906 300.210938 169.9375 299.144531 L 173.050781 291.460938 L 139.742188 262.609375 L 136.582031 293.757812 L 139.800781 297.289062 C 139.917969 297.421875 140.011719 297.570312 140.066406 297.738281 L 141.457031 301.914062 C 141.582031 302.296875 141.523438 302.714844 141.285156 303.039062 C 141.042969 303.363281 140.675781 303.554688 140.269531 303.554688 L 136.863281 303.554688 C 136.539062 303.554688 136.222656 303.429688 135.988281 303.207031 L 135.640625 302.863281 L 134.46875 313.917969 L 147.441406 313.917969 C 146.492188 312.820312 145.910156 311.386719 145.910156 309.8125 L 145.910156 305.917969 C 145.925781 304.003906 147.484375 302.449219 149.390625 302.449219 Z M 309.527344 201.828125 L 172.027344 201.828125 C 171.335938 201.828125 170.777344 201.269531 170.777344 200.578125 L 170.777344 166.554688 C 169.363281 166.15625 167.964844 165.808594 166.691406 165.574219 C 158.320312 164.027344 154.167969 159.355469 154.992188 152.441406 C 154.992188 152.433594 154.992188 152.433594 154.992188 152.425781 C 154.992188 152.398438 154.992188 152.375 155 152.339844 C 155.640625 147.222656 160.617188 145.332031 164.570312 144.652344 C 161.707031 143.152344 158.660156 141.113281 158.363281 139.089844 C 158.21875 138.167969 158.59375 137.300781 159.402344 136.652344 C 161.441406 135.023438 166.175781 136.269531 170.777344 138.144531 L 170.777344 59.828125 C 170.777344 59.136719 171.335938 58.578125 172.027344 58.578125 L 309.757812 58.578125 C 310.089844 58.578125 310.40625 58.710938 310.640625 58.945312 C 310.875 59.175781 311.007812 59.492188 311.007812 59.828125 C 311.007812 61.234375 310.773438 200.222656 310.773438 200.570312 C 310.773438 201.261719 310.207031 201.828125 309.527344 201.828125 Z M 308.476562 79.660156 L 244.234375 79.660156 C 245.382812 81.164062 246.457031 82.964844 247.472656 85.070312 C 247.679688 85.5 247.898438 85.96875 248.128906 86.449219 L 297.675781 86.449219 C 298.363281 86.449219 298.921875 87.007812 298.921875 87.699219 L 298.921875 130.902344 C 298.921875 131.59375 298.363281 132.148438 297.675781 132.148438 L 266.464844 132.148438 C 267.097656 133.824219 267.472656 134.820312 267.488281 134.878906 C 267.5625 135.089844 267.578125 135.296875 267.546875 135.503906 C 271.242188 137.019531 275.1875 139.28125 278.824219 142.660156 L 298.605469 142.660156 C 299.296875 142.660156 299.855469 143.21875 299.855469 143.910156 C 299.855469 144.601562 299.296875 145.160156 298.605469 145.160156 L 281.261719 145.160156 C 282.675781 146.75 284.015625 148.546875 285.257812 150.558594 L 299.074219 150.558594 C 299.761719 150.558594 300.320312 151.117188 300.320312 151.808594 C 300.320312 152.5 299.761719 153.058594 299.074219 153.058594 L 286.671875 153.058594 C 287.738281 155.105469 288.695312 157.367188 289.511719 159.847656 L 296.285156 159.847656 C 296.976562 159.847656 297.53125 160.40625 297.53125 161.097656 C 297.53125 161.789062 296.976562 162.34375 296.285156 162.34375 L 290.308594 162.34375 C 297.035156 184.140625 299.929688 197.484375 300.320312 199.332031 L 308.269531 199.332031 C 308.292969 188.894531 308.410156 115.730469 308.476562 79.660156 Z M 214.929688 82.273438 C 199.683594 91.253906 200.65625 107.390625 203.210938 120.441406 C 205.101562 130.09375 207.324219 158.316406 207.789062 164.492188 L 219.574219 164.492188 L 225.160156 140.605469 C 225.257812 140.199219 225.550781 139.867188 225.941406 139.714844 C 227.082031 139.292969 230.277344 137.960938 231.484375 136.792969 C 231.824219 135.894531 230.695312 132.007812 228.980469 128.082031 C 222.113281 130.359375 212.632812 126.417969 208.796875 119.417969 C 204.652344 111.859375 207.632812 100.832031 207.757812 100.367188 C 207.929688 99.734375 208.570312 99.34375 209.222656 99.476562 L 237.09375 105.367188 C 238.101562 104.335938 240.371094 102.347656 242.785156 102.539062 C 243.769531 102.613281 245.167969 103.097656 246.265625 104.933594 C 247.023438 106.191406 247.207031 107.539062 246.816406 108.9375 C 245.925781 112.117188 242.261719 114.546875 240.773438 115.421875 C 240.125 120.316406 236.078125 150.460938 233.207031 159.757812 C 236.285156 159.957031 243.1875 160.066406 247.53125 157.542969 L 252.316406 127.679688 C 252.425781 127 253.074219 126.53125 253.746094 126.648438 C 254.429688 126.757812 254.894531 127.398438 254.78125 128.082031 L 254.082031 132.457031 C 256.019531 132.542969 259.980469 132.917969 264.660156 134.429688 C 262.152344 127.765625 250.726562 97.570312 245.226562 86.144531 C 242.5625 80.617188 239.574219 77.511719 235.835938 76.378906 C 230.917969 74.890625 224.277344 76.761719 214.929688 82.273438 Z M 209.039062 199.332031 L 219.839844 199.332031 L 217.96875 192.855469 C 215.371094 192.332031 207.679688 190.050781 205.210938 181.171875 C 203.785156 176.070312 206.722656 170.042969 208.539062 166.988281 L 206.648438 166.988281 C 205.992188 166.988281 205.449219 166.480469 205.402344 165.832031 C 205.394531 165.683594 204.902344 159.097656 204.175781 150.851562 C 202.378906 152.457031 199.601562 155.304688 198.160156 158.648438 C 202.511719 171.964844 208.207031 195.695312 209.019531 199.132812 C 209.019531 199.1875 209.03125 199.265625 209.039062 199.332031 Z M 252.964844 199.332031 L 250.824219 197.492188 C 249.203125 197.742188 247.671875 197.839844 246.273438 197.839844 C 243.09375 197.839844 240.597656 197.339844 239.222656 196.984375 C 236.652344 196.308594 235.644531 195.601562 234.480469 194.777344 C 233.90625 194.371094 233.316406 193.953125 232.425781 193.464844 C 230.519531 192.40625 229.039062 191.632812 228.3125 191.257812 C 224.46875 192.65625 223.0625 191.332031 222.554688 190.402344 C 221.253906 187.960938 223.753906 184.035156 226.90625 181.894531 C 228.9375 180.523438 232.367188 178.789062 235.695312 177.234375 C 232.714844 176.386719 231.46875 174.5625 231.019531 173.613281 C 230.160156 171.824219 230.285156 169.777344 231.324219 168.628906 C 232.824219 166.964844 234.472656 167.730469 235.785156 168.34375 C 236.519531 168.6875 237.351562 169.078125 238.425781 169.335938 C 240.074219 169.726562 240.929688 169.636719 242.828125 169.425781 C 244.269531 169.269531 246.242188 169.0625 249.417969 168.988281 C 249.601562 168.988281 249.785156 168.976562 249.96875 168.976562 C 255.976562 168.976562 258.433594 171.199219 263.003906 175.496094 L 260.039062 167.089844 C 259.804688 166.441406 260.148438 165.722656 260.804688 165.5 C 261.453125 165.273438 262.167969 165.609375 262.394531 166.265625 L 266.929688 179.125 C 274.496094 185.941406 287.8125 199.097656 287.953125 199.230469 C 287.988281 199.265625 287.996094 199.304688 288.019531 199.332031 L 297.773438 199.332031 C 297.082031 196.160156 294.027344 182.667969 287.429688 161.460938 C 284.207031 151.109375 278.242188 143.636719 269.683594 139.175781 C 268.011719 140.40625 261.636719 144.800781 251.542969 148.304688 L 249.902344 158.507812 C 249.84375 158.859375 249.644531 159.164062 249.351562 159.355469 C 243.003906 163.511719 231.800781 162.171875 231.324219 162.105469 C 230.933594 162.054688 230.59375 161.828125 230.394531 161.488281 C 230.195312 161.148438 230.175781 160.730469 230.335938 160.371094 C 230.953125 158.949219 231.667969 156.085938 232.40625 152.464844 C 229.902344 152.699219 227.382812 152.824219 224.867188 152.832031 L 221.78125 166.03125 C 221.648438 166.597656 221.148438 166.996094 220.566406 166.996094 L 211.46875 166.996094 C 210.238281 168.851562 206.199219 175.503906 207.597656 180.511719 C 210.113281 189.519531 218.691406 190.484375 219.058594 190.527344 C 219.566406 190.574219 220 190.925781 220.140625 191.425781 L 222.4375 199.347656 L 252.964844 199.347656 Z M 265.023438 180.753906 C 263.683594 179.554688 262.535156 178.472656 261.503906 177.5 C 256.742188 173.023438 254.960938 171.351562 249.46875 171.464844 C 246.40625 171.53125 244.492188 171.742188 243.09375 171.890625 C 241.113281 172.109375 239.914062 172.230469 237.851562 171.742188 C 236.527344 171.425781 235.539062 170.957031 234.730469 170.585938 C 233.449219 169.984375 233.414062 170.019531 233.183594 170.277344 C 232.949219 170.535156 232.78125 171.5 233.273438 172.515625 C 234.164062 174.386719 236.667969 175.34375 240.125 175.160156 C 240.15625 175.160156 240.199219 175.160156 240.230469 175.160156 C 242.886719 173.996094 244.890625 173.164062 245.089844 173.082031 C 245.734375 172.816406 246.457031 173.121094 246.722656 173.761719 C 246.988281 174.40625 246.679688 175.128906 246.039062 175.394531 C 245.90625 175.445312 232.941406 180.804688 228.304688 183.941406 C 225.449219 185.882812 224.425781 188.578125 224.757812 189.203125 C 224.851562 189.367188 225.734375 189.558594 227.765625 188.769531 C 233.347656 184.25 243.535156 181.070312 243.96875 180.9375 C 244.625 180.738281 245.324219 181.105469 245.53125 181.761719 C 245.742188 182.417969 245.367188 183.117188 244.707031 183.328125 C 244.617188 183.351562 236.34375 185.941406 230.917969 189.558594 C 230.925781 189.558594 230.933594 189.558594 230.941406 189.550781 C 237.46875 189.109375 244.574219 186.265625 244.652344 186.230469 C 245.292969 185.972656 246.015625 186.28125 246.273438 186.921875 C 246.53125 187.5625 246.222656 188.285156 245.582031 188.542969 C 245.324219 188.644531 240.125 190.726562 234.339844 191.65625 C 234.664062 191.855469 234.945312 192.039062 235.210938 192.214844 C 235.335938 192.183594 235.460938 192.164062 235.59375 192.171875 C 240.296875 192.464844 246.914062 190.832031 246.980469 190.816406 C 247.65625 190.648438 248.328125 191.058594 248.496094 191.722656 C 248.664062 192.390625 248.253906 193.070312 247.589844 193.238281 C 247.378906 193.289062 243.792969 194.179688 239.898438 194.546875 C 242.476562 195.210938 249.210938 196.394531 256.875 193.195312 C 257.507812 192.929688 258.242188 193.230469 258.507812 193.871094 C 258.773438 194.503906 258.472656 195.234375 257.832031 195.503906 C 256.492188 196.058594 255.1875 196.484375 253.914062 196.816406 L 256.609375 199.132812 C 256.667969 199.179688 256.71875 199.238281 256.769531 199.296875 L 284.5 199.296875 C 280.605469 195.511719 270.925781 186.054688 265.023438 180.753906 Z M 265.855469 129.652344 L 296.425781 129.652344 L 296.425781 99.632812 L 253.773438 99.632812 C 258.132812 110.3125 262.925781 122.820312 265.53125 129.703125 C 265.640625 129.671875 265.75 129.652344 265.855469 129.652344 Z M 252.75 97.136719 L 296.425781 97.136719 L 296.425781 88.949219 L 249.253906 88.949219 C 250.328125 91.351562 251.507812 94.140625 252.75 97.136719 Z M 267.023438 137.910156 C 261.019531 135.363281 255.628906 134.988281 253.679688 134.9375 L 251.992188 145.5 C 259.457031 142.769531 264.691406 139.566406 267.089844 137.941406 C 267.0625 137.925781 267.046875 137.917969 267.023438 137.910156 Z M 220.707031 104.460938 C 220.664062 104.511719 220.625 104.5625 220.574219 104.601562 C 220.441406 104.710938 220.308594 104.808594 220.140625 104.910156 C 219.972656 105 219.789062 105.117188 219.558594 105.175781 L 219.332031 105.234375 C 219.316406 105.242188 219.300781 105.242188 219.28125 105.242188 C 218.992188 105.285156 218.726562 105.085938 218.675781 104.792969 C 218.632812 104.503906 218.660156 104.269531 218.71875 104.035156 L 209.894531 102.171875 C 209.28125 105.070312 208.039062 112.84375 210.984375 118.21875 C 214.054688 123.820312 222.828125 128.246094 229.113281 125.351562 C 229.746094 125.058594 230.476562 125.335938 230.769531 125.957031 C 232.949219 130.660156 235.15625 136.660156 233.308594 138.515625 C 231.875 139.949219 228.8125 141.273438 227.449219 141.8125 L 225.457031 150.308594 C 227.945312 150.285156 230.453125 150.144531 232.925781 149.894531 C 235.554688 136.113281 238.34375 114.773438 238.382812 114.480469 C 238.433594 114.082031 238.683594 113.722656 239.042969 113.539062 C 240.316406 112.867188 243.761719 110.613281 244.417969 108.273438 C 244.625 107.539062 244.527344 106.890625 244.132812 106.226562 C 243.460938 105.101562 242.8125 105.050781 242.601562 105.035156 C 241.121094 104.917969 239.082031 106.859375 238.5 107.546875 C 238.199219 107.898438 237.742188 108.066406 237.285156 107.964844 Z M 173.277344 199.332031 L 183.3125 199.332031 L 181.066406 170.09375 C 179.71875 169.5625 176.628906 168.378906 173.277344 167.3125 Z M 160.957031 138.609375 C 160.867188 138.683594 160.832031 138.734375 160.824219 138.734375 C 160.867188 139.773438 165.285156 142.511719 169.929688 144.375 L 174.808594 146.347656 C 175.449219 146.605469 175.753906 147.339844 175.496094 147.972656 C 175.296875 148.453125 174.832031 148.753906 174.339844 148.753906 C 174.183594 148.753906 174.023438 148.722656 173.875 148.664062 L 169.214844 146.773438 C 167.875 146.765625 160.308594 146.882812 158.0625 150.867188 C 163.238281 150.300781 172.492188 151.457031 173.699219 151.609375 C 174.382812 151.699219 174.863281 152.324219 174.773438 153.007812 C 174.691406 153.640625 174.15625 154.097656 173.535156 154.097656 C 173.484375 154.097656 173.425781 154.097656 173.375 154.089844 C 169.972656 153.648438 161 152.757812 157.402344 153.480469 C 157.328125 154.828125 157.496094 156.042969 157.910156 157.136719 C 161.289062 156.828125 171.917969 157.765625 173.183594 157.875 C 173.875 157.933594 174.375 158.542969 174.316406 159.230469 C 174.257812 159.882812 173.714844 160.371094 173.074219 160.371094 C 173.042969 160.371094 173 160.371094 172.960938 160.363281 C 168.796875 159.988281 162.554688 159.539062 159.433594 159.558594 C 161.058594 161.269531 163.628906 162.460938 167.140625 163.117188 C 173.46875 164.292969 182.339844 167.914062 182.714844 168.070312 C 183.144531 168.246094 183.445312 168.660156 183.488281 169.128906 L 185.808594 199.324219 C 185.808594 199.324219 185.808594 199.332031 185.808594 199.332031 L 206.484375 199.332031 C 202.296875 181.785156 195.222656 154.878906 192.640625 151.660156 C 191.285156 149.960938 189.914062 148.636719 188.589844 147.355469 C 186.34375 145.191406 184.410156 143.320312 183.59375 140.546875 C 183.328125 139.632812 183.070312 138.625 182.8125 137.625 C 182.398438 136.019531 181.757812 133.5 181.199219 132.476562 C 180.464844 134.007812 179.882812 138.859375 181.347656 143.792969 C 181.347656 143.792969 181.347656 143.800781 181.347656 143.800781 C 181.382812 143.917969 181.390625 144.035156 181.390625 144.160156 C 181.390625 144.183594 181.390625 144.203125 181.390625 144.226562 C 181.382812 144.34375 181.363281 144.460938 181.324219 144.566406 C 181.324219 144.574219 181.324219 144.585938 181.316406 144.59375 C 181.28125 144.667969 178.445312 152.449219 183.289062 156.6875 C 183.804688 157.144531 183.863281 157.925781 183.402344 158.449219 C 182.945312 158.964844 182.164062 159.023438 181.640625 158.566406 C 176.621094 154.179688 177.910156 147.347656 178.644531 144.757812 C 171.226562 140.664062 162.582031 137.300781 160.957031 138.609375 Z M 178.328125 141.714844 C 177.5625 137.167969 178.085938 132.699219 179.285156 130.835938 C 179.832031 129.976562 180.476562 129.71875 180.914062 129.660156 C 183.296875 129.328125 184.144531 132.707031 185.242188 137.003906 C 185.492188 137.976562 185.742188 138.949219 186.007812 139.839844 C 186.632812 141.980469 188.273438 143.550781 190.34375 145.558594 C 191.660156 146.832031 193.160156 148.269531 194.613281 150.09375 C 195.273438 150.917969 196.113281 152.808594 197.046875 155.394531 C 199.332031 151.617188 202.664062 148.789062 203.910156 147.804688 C 203.003906 137.777344 201.832031 126.273438 200.78125 120.921875 C 200.347656 118.699219 199.714844 115.464844 199.410156 111.710938 L 181.796875 111.710938 C 181.105469 111.710938 180.550781 111.152344 180.550781 110.460938 C 180.550781 109.769531 181.105469 109.214844 181.796875 109.214844 L 199.257812 109.214844 C 199.191406 107.433594 199.226562 105.566406 199.382812 103.660156 L 192.792969 103.660156 C 192.101562 103.660156 191.542969 103.105469 191.542969 102.414062 C 191.542969 101.722656 192.101562 101.164062 192.792969 101.164062 L 199.683594 101.164062 C 200.074219 98.585938 200.75 95.980469 201.824219 93.441406 L 180.101562 93.441406 C 179.410156 93.441406 178.851562 92.882812 178.851562 92.191406 C 178.851562 91.503906 179.410156 90.945312 180.101562 90.945312 L 203.019531 90.945312 C 203.019531 90.945312 203.027344 90.945312 203.027344 90.945312 C 205.242188 86.882812 208.621094 83.113281 213.691406 80.125 C 213.964844 79.96875 214.230469 79.816406 214.496094 79.660156 L 173.300781 79.660156 L 173.300781 139.226562 C 175.140625 140.074219 176.886719 140.957031 178.328125 141.714844 Z M 173.277344 61.074219 L 173.277344 77.164062 L 218.941406 77.164062 C 219 77.164062 219.050781 77.171875 219.101562 77.179688 C 226.375 73.625 232.007812 72.617188 236.5625 74 C 238.550781 74.609375 240.347656 75.648438 241.988281 77.164062 L 308.476562 77.164062 C 308.492188 69.371094 308.503906 63.613281 308.503906 61.074219 Z M 294.660156 73.617188 C 292.265625 73.617188 290.316406 71.667969 290.316406 69.273438 C 290.316406 66.875 292.265625 64.929688 294.660156 64.929688 C 297.058594 64.929688 299.007812 66.875 299.007812 69.273438 C 299.007812 71.667969 297.050781 73.617188 294.660156 73.617188 Z M 294.660156 67.425781 C 293.644531 67.425781 292.8125 68.257812 292.8125 69.273438 C 292.8125 70.289062 293.644531 71.121094 294.660156 71.121094 C 295.675781 71.121094 296.507812 70.289062 296.507812 69.273438 C 296.507812 68.257812 295.675781 67.425781 294.660156 67.425781 Z M 283.507812 73.617188 C 281.113281 73.617188 279.164062 71.667969 279.164062 69.273438 C 279.164062 66.875 281.113281 64.929688 283.507812 64.929688 C 285.90625 64.929688 287.855469 66.875 287.855469 69.273438 C 287.855469 71.667969 285.90625 73.617188 283.507812 73.617188 Z M 283.507812 67.425781 C 282.492188 67.425781 281.660156 68.257812 281.660156 69.273438 C 281.660156 70.289062 282.492188 71.121094 283.507812 71.121094 C 284.523438 71.121094 285.355469 70.289062 285.355469 69.273438 C 285.355469 68.257812 284.523438 67.425781 283.507812 67.425781 Z M 272.207031 73.542969 C 269.808594 73.542969 267.863281 71.59375 267.863281 69.199219 C 267.863281 66.800781 269.808594 64.851562 272.207031 64.851562 C 274.605469 64.851562 276.550781 66.800781 276.550781 69.199219 C 276.550781 71.59375 274.605469 73.542969 272.207031 73.542969 Z M 272.207031 67.34375 C 271.191406 67.34375 270.359375 68.175781 270.359375 69.191406 C 270.359375 70.203125 271.191406 71.035156 272.207031 71.035156 C 273.222656 71.035156 274.054688 70.203125 274.054688 69.191406 C 274.054688 68.175781 273.222656 67.34375 272.207031 67.34375 Z M 174.882812 102.40625 C 174.882812 103.097656 175.4375 103.652344 176.128906 103.652344 L 183.871094 103.652344 C 184.5625 103.652344 185.117188 103.097656 185.117188 102.40625 C 185.117188 101.714844 184.5625 101.15625 183.871094 101.15625 L 176.128906 101.15625 C 175.4375 101.15625 174.882812 101.714844 174.882812 102.40625 Z M 289.984375 92.808594 C 289.984375 93.589844 290.625 94.230469 291.40625 94.230469 C 292.191406 94.230469 292.832031 93.589844 292.832031 92.808594 C 292.832031 92.027344 292.191406 91.386719 291.40625 91.386719 C 290.625 91.386719 289.984375 92.019531 289.984375 92.808594 Z M 284.292969 92.808594 C 284.292969 93.589844 284.933594 94.230469 285.714844 94.230469 C 286.496094 94.230469 287.136719 93.589844 287.136719 92.808594 C 287.136719 92.027344 286.496094 91.386719 285.714844 91.386719 C 284.933594 91.386719 284.292969 92.019531 284.292969 92.808594 Z M 143.0625 91.835938 C 140.691406 91.835938 138.769531 89.90625 138.769531 87.539062 C 138.769531 85.175781 140.699219 83.246094 143.0625 83.246094 C 145.429688 83.246094 147.359375 85.175781 147.359375 87.539062 C 147.359375 89.90625 145.429688 91.835938 143.0625 91.835938 Z M 143.0625 85.742188 C 142.074219 85.742188 141.265625 86.550781 141.265625 87.539062 C 141.265625 88.53125 142.074219 89.339844 143.0625 89.339844 C 144.054688 89.339844 144.863281 88.53125 144.863281 87.539062 C 144.863281 86.550781 144.054688 85.742188 143.0625 85.742188 Z M 128.382812 91.835938 C 126.011719 91.835938 124.089844 89.90625 124.089844 87.539062 C 124.089844 85.175781 126.019531 83.246094 128.382812 83.246094 C 130.746094 83.246094 132.675781 85.175781 132.675781 87.539062 C 132.675781 89.90625 130.746094 91.835938 128.382812 91.835938 Z M 128.382812 85.742188 C 127.394531 85.742188 126.585938 86.550781 126.585938 87.539062 C 126.585938 88.53125 127.394531 89.339844 128.382812 89.339844 C 129.375 89.339844 130.179688 88.53125 130.179688 87.539062 C 130.179688 86.550781 129.375 85.742188 128.382812 85.742188 Z M 113.703125 91.835938 C 111.328125 91.835938 109.40625 89.90625 109.40625 87.539062 C 109.40625 85.175781 111.339844 83.246094 113.703125 83.246094 C 116.066406 83.246094 117.996094 85.175781 117.996094 87.539062 C 117.996094 89.90625 116.066406 91.835938 113.703125 91.835938 Z M 113.703125 85.742188 C 112.710938 85.742188 111.902344 86.550781 111.902344 87.539062 C 111.902344 88.53125 112.710938 89.339844 113.703125 89.339844 C 114.691406 89.339844 115.5 88.53125 115.5 87.539062 C 115.5 86.550781 114.691406 85.742188 113.703125 85.742188 Z M 345.414062 229.785156 C 341.757812 229.785156 338.628906 228.285156 336.847656 226.871094 C 336.582031 226.664062 336.417969 226.347656 336.382812 226.011719 C 336.351562 225.671875 336.457031 225.339844 336.675781 225.082031 C 345.703125 214.542969 356.242188 222.5 356.347656 222.585938 C 356.625 222.800781 356.796875 223.117188 356.832031 223.464844 C 356.863281 223.816406 356.738281 224.15625 356.507812 224.414062 C 352.804688 228.445312 348.875 229.785156 345.414062 229.785156 Z M 339.539062 225.664062 C 341.917969 227.035156 347.683594 229.300781 353.621094 223.78125 C 351.113281 222.382812 345.164062 220.085938 339.539062 225.664062 Z M 149.398438 103.796875 L 154.5 111.882812 C 154.808594 112.367188 154.742188 113 154.351562 113.40625 C 154.109375 113.664062 153.777344 113.800781 153.441406 113.800781 C 153.234375 113.800781 153.027344 113.75 152.835938 113.640625 L 136.554688 104.511719 L 112.570312 104.511719 C 103.433594 104.511719 95.992188 97.070312 95.992188 87.933594 C 95.992188 78.792969 103.433594 71.351562 112.570312 71.351562 L 144.621094 71.351562 C 153.757812 71.351562 161.199219 78.792969 161.199219 87.933594 C 161.199219 95.304688 156.332031 101.714844 149.398438 103.796875 Z M 144.621094 73.851562 L 112.570312 73.851562 C 104.804688 73.851562 98.488281 80.167969 98.488281 87.933594 C 98.488281 95.695312 104.804688 102.015625 112.570312 102.015625 L 136.878906 102.015625 C 137.097656 102.015625 137.304688 102.074219 137.488281 102.171875 L 149.765625 109.054688 L 146.359375 103.660156 C 146.136719 103.3125 146.109375 102.871094 146.269531 102.496094 C 146.433594 102.113281 146.777344 101.847656 147.183594 101.773438 C 153.851562 100.539062 158.695312 94.722656 158.695312 87.941406 C 158.703125 80.167969 152.386719 73.851562 144.621094 73.851562 Z M 108.765625 174.769531 C 108.402344 173.582031 107.441406 172.816406 106.636719 173.066406 C 105.828125 173.3125 105.472656 174.480469 105.84375 175.679688 C 106.210938 176.867188 107.167969 177.632812 107.976562 177.382812 C 108.773438 177.132812 109.132812 175.96875 108.765625 174.769531 Z M 119.585938 171.332031 C 119.21875 170.144531 118.261719 169.378906 117.457031 169.628906 C 116.648438 169.878906 116.289062 171.042969 116.664062 172.242188 C 117.03125 173.429688 117.988281 174.195312 118.796875 173.945312 C 119.601562 173.6875 119.953125 172.523438 119.585938 171.332031 Z M 113.210938 177.277344 L 113.070312 177.300781 C 112.59375 177.382812 112.277344 177.839844 112.363281 178.316406 C 112.421875 178.617188 112.628906 178.855469 112.894531 178.972656 C 113.285156 179.132812 113.703125 179.25 114.152344 179.296875 C 114.609375 179.324219 115.09375 179.316406 115.609375 179.148438 C 116.105469 178.980469 116.648438 178.675781 116.988281 178.183594 C 117.332031 177.683594 117.480469 177.160156 117.355469 176.519531 C 117.339844 176.425781 117.253906 176.359375 117.15625 176.367188 L 115.773438 176.445312 C 115.675781 176.453125 115.582031 176.578125 115.5 176.625 C 115.417969 176.683594 115.351562 176.734375 115.285156 176.777344 C 115.160156 176.851562 115.050781 176.941406 114.851562 177.007812 C 114.675781 177.09375 114.410156 177.132812 114.136719 177.183594 C 113.984375 177.199219 113.84375 177.21875 113.683594 177.242188 C 113.542969 177.242188 113.378906 177.25 113.210938 177.277344 Z M 111.171875 186.121094 C 111.15625 186.449219 111.339844 186.730469 111.613281 186.863281 C 112.011719 187.046875 112.421875 187.222656 112.84375 187.363281 C 113.285156 187.460938 113.71875 187.621094 114.183594 187.636719 C 115.101562 187.769531 116.074219 187.636719 116.980469 187.371094 C 117.898438 187.089844 118.738281 186.597656 119.429688 185.972656 C 120.136719 185.339844 120.660156 184.632812 121.066406 183.710938 C 121.257812 183.269531 121.058594 182.753906 120.625 182.5625 C 120.277344 182.402344 119.867188 182.503906 119.628906 182.777344 L 119.527344 182.886719 C 119.113281 183.351562 118.554688 183.882812 118.019531 184.273438 C 117.472656 184.683594 116.890625 185.007812 116.265625 185.222656 C 115.640625 185.433594 114.984375 185.589844 114.292969 185.582031 C 113.953125 185.625 113.59375 185.558594 113.226562 185.558594 C 112.863281 185.53125 112.503906 185.449219 112.121094 185.421875 L 111.988281 185.414062 C 111.554688 185.382812 111.195312 185.699219 111.171875 186.121094 Z M 119.554688 166.097656 C 119.527344 165.949219 119.4375 165.824219 119.320312 165.742188 C 118.761719 165.359375 118.195312 165.175781 117.554688 165.101562 C 116.921875 165.023438 116.25 165.101562 115.617188 165.339844 C 114.984375 165.566406 114.394531 165.964844 113.976562 166.472656 C 113.542969 166.972656 113.277344 167.570312 113.167969 168.179688 C 113.101562 168.59375 113.378906 168.988281 113.792969 169.054688 C 114 169.085938 114.203125 169.035156 114.359375 168.929688 L 114.460938 168.851562 C 114.882812 168.554688 115.183594 168.253906 115.515625 168.019531 C 115.824219 167.761719 116.148438 167.589844 116.480469 167.414062 C 116.824219 167.246094 117.199219 167.113281 117.613281 167.003906 C 118.03125 166.898438 118.511719 166.839844 118.96875 166.765625 L 119.101562 166.738281 C 119.402344 166.6875 119.601562 166.398438 119.554688 166.097656 Z M 108.234375 169.570312 C 108.210938 169.417969 108.117188 169.292969 108 169.210938 C 107.441406 168.828125 106.878906 168.644531 106.238281 168.570312 C 105.605469 168.496094 104.929688 168.570312 104.296875 168.8125 C 103.664062 169.035156 103.074219 169.4375 102.65625 169.945312 C 102.226562 170.441406 101.957031 171.042969 101.851562 171.648438 C 101.785156 172.066406 102.058594 172.457031 102.476562 172.523438 C 102.683594 172.558594 102.882812 172.507812 103.039062 172.398438 L 103.140625 172.324219 C 103.566406 172.023438 103.863281 171.726562 104.199219 171.492188 C 104.503906 171.234375 104.828125 171.058594 105.164062 170.882812 C 105.503906 170.71875 105.878906 170.585938 106.292969 170.476562 C 106.710938 170.367188 107.195312 170.308594 107.652344 170.234375 L 107.785156 170.210938 C 108.085938 170.152344 108.285156 169.867188 108.234375 169.570312 Z M 224.226562 107.25 C 223.660156 106.292969 222.679688 105.824219 222.03125 106.207031 C 221.378906 106.589844 221.3125 107.671875 221.878906 108.640625 C 222.445312 109.605469 223.429688 110.0625 224.078125 109.679688 C 224.726562 109.296875 224.792969 108.214844 224.226562 107.25 Z M 215.472656 112.316406 C 214.90625 111.359375 213.921875 110.894531 213.273438 111.277344 C 212.625 111.660156 212.558594 112.742188 213.125 113.707031 C 213.691406 114.671875 214.671875 115.128906 215.320312 114.746094 C 215.972656 114.363281 216.039062 113.273438 215.472656 112.316406 Z M 221.707031 112.875 C 221.429688 112.773438 221.128906 112.84375 220.921875 113.015625 L 220.863281 113.066406 C 220.632812 113.265625 220.433594 113.457031 220.230469 113.625 C 220.03125 113.773438 219.847656 113.921875 219.691406 113.992188 C 219.53125 114.074219 219.40625 114.097656 219.273438 114.132812 C 219.160156 114.171875 218.941406 114.183594 218.765625 114.257812 L 218.085938 114.546875 C 217.820312 114.65625 217.695312 114.964844 217.808594 115.230469 C 217.828125 115.273438 217.851562 115.3125 217.875 115.347656 C 218.234375 115.8125 218.660156 116.039062 219.191406 116.105469 C 219.722656 116.171875 220.25 116.003906 220.65625 115.769531 C 221.082031 115.539062 221.371094 115.222656 221.628906 114.90625 C 221.863281 114.582031 222.039062 114.238281 222.171875 113.882812 C 222.320312 113.464844 222.113281 113.015625 221.707031 112.875 Z M 228.136719 117.753906 C 228.253906 117.394531 228.054688 117.011719 227.699219 116.902344 C 227.40625 116.8125 227.105469 116.929688 226.941406 117.160156 L 226.898438 117.21875 C 226.507812 117.777344 226.140625 118.300781 225.699219 118.742188 C 225.285156 119.199219 224.785156 119.542969 224.277344 119.824219 C 223.761719 120.109375 223.195312 120.300781 222.59375 120.414062 C 222.011719 120.53125 221.332031 120.574219 220.773438 120.574219 L 220.648438 120.574219 C 220.222656 120.574219 219.875 120.914062 219.867188 121.347656 C 219.867188 121.6875 220.089844 121.988281 220.398438 122.089844 C 221.246094 122.371094 222.03125 122.445312 222.871094 122.363281 C 223.695312 122.28125 224.527344 122.023438 225.257812 121.589844 C 225.984375 121.15625 226.648438 120.597656 227.113281 119.90625 C 227.382812 119.589844 227.539062 119.21875 227.738281 118.867188 C 227.890625 118.5 228.011719 118.125 228.136719 117.753906 Z M 215.1875 108.015625 C 215.148438 107.832031 215.039062 107.683594 214.898438 107.589844 C 214.429688 107.289062 213.882812 107.109375 213.289062 107.097656 C 212.707031 107.074219 212.09375 107.214844 211.558594 107.5 C 211.027344 107.773438 210.570312 108.164062 210.246094 108.628906 C 209.910156 109.097656 209.695312 109.585938 209.613281 110.179688 C 209.578125 110.445312 209.761719 110.695312 210.035156 110.726562 C 210.167969 110.746094 210.304688 110.710938 210.402344 110.628906 L 210.496094 110.554688 C 210.820312 110.304688 211.152344 110.011719 211.46875 109.804688 C 211.792969 109.585938 212.101562 109.421875 212.417969 109.304688 C 212.734375 109.195312 213.042969 109.089844 213.398438 109.039062 C 213.75 108.957031 214.132812 108.9375 214.574219 108.839844 L 214.679688 108.8125 C 215.03125 108.738281 215.261719 108.382812 215.1875 108.015625 Z M 215.1875 108.015625 " fill-opacity="1" fill-rule="nonzero"/></g></svg>