<svg xmlns="http://www.w3.org/2000/svg" xmlns:xlink="http://www.w3.org/1999/xlink" width="150" zoomAndPan="magnify" viewBox="0 0 112.5 74.999997" height="100" preserveAspectRatio="xMidYMid meet" version="1.0"><defs><g/></defs><g fill="#9f9a7f" fill-opacity="1"><g transform="translate(20.364792, 29.475658)"><g><path d="M 9.796875 -9.859375 C 9.878906 -9.785156 10.003906 -9.75 10.171875 -9.75 C 10.347656 -9.75 10.492188 -9.78125 10.609375 -9.84375 C 10.347656 -11.363281 10.175781 -12.265625 10.09375 -12.546875 C 9.976562 -12.835938 9.8125 -12.984375 9.59375 -12.984375 C 9.488281 -12.984375 9.367188 -12.953125 9.234375 -12.890625 Z M 6.828125 -5.359375 C 6.734375 -5.222656 6.6875 -5.09375 6.6875 -4.96875 C 6.6875 -4.675781 6.957031 -4.429688 7.5 -4.234375 C 8.039062 -4.046875 8.703125 -3.925781 9.484375 -3.875 C 9.617188 -2.4375 9.757812 -1.613281 9.90625 -1.40625 C 9.71875 -1.039062 9.191406 -0.671875 8.328125 -0.296875 C 7.472656 0.078125 6.503906 0.265625 5.421875 0.265625 C 3.984375 0.265625 2.753906 -0.0390625 1.734375 -0.65625 C 0.710938 -1.269531 0.203125 -2.0625 0.203125 -3.03125 C 0.203125 -3.289062 0.226562 -3.519531 0.28125 -3.71875 L 3.484375 -18.015625 C 4.285156 -18.523438 5.238281 -18.925781 6.34375 -19.21875 C 7.457031 -19.507812 8.613281 -19.65625 9.8125 -19.65625 C 11.539062 -19.65625 13.015625 -19.363281 14.234375 -18.78125 C 15.628906 -18.125 16.472656 -17.171875 16.765625 -15.921875 L 20.1875 -1.75 C 19.15625 -0.40625 17.460938 0.265625 15.109375 0.265625 C 13.960938 0.265625 12.992188 0.0625 12.203125 -0.34375 C 11.410156 -0.757812 10.953125 -1.347656 10.828125 -2.109375 L 10.5 -3.9375 C 11.09375 -3.945312 11.671875 -4.0625 12.234375 -4.28125 C 12.796875 -4.5 13.078125 -4.726562 13.078125 -4.96875 C 13.078125 -5.125 13.007812 -5.253906 12.875 -5.359375 C 12.5 -5.085938 12.035156 -4.878906 11.484375 -4.734375 C 10.929688 -4.597656 10.421875 -4.53125 9.953125 -4.53125 C 8.597656 -4.53125 7.554688 -4.804688 6.828125 -5.359375 Z M 6.828125 -5.359375 "/></g></g></g><g fill="#9f9a7f" fill-opacity="1"><g transform="translate(40.622148, 29.475658)"><g><path d="M 16.359375 -7.4375 C 16.359375 -6.707031 16.4375 -6.125 16.59375 -5.6875 C 16.757812 -5.25 17.046875 -4.90625 17.453125 -4.65625 C 17.460938 -4.601562 17.46875 -4.507812 17.46875 -4.375 L 17.46875 -4.09375 C 17.46875 -2.71875 17.066406 -1.644531 16.265625 -0.875 C 15.472656 -0.113281 14.445312 0.265625 13.1875 0.265625 C 11.9375 0.265625 10.921875 -0.0859375 10.140625 -0.796875 C 9.222656 -1.609375 8.765625 -2.835938 8.765625 -4.484375 C 8.765625 -5.191406 8.796875 -5.8125 8.859375 -6.34375 C 8.929688 -6.875 8.976562 -7.253906 9 -7.484375 C 9.019531 -7.722656 9.046875 -7.941406 9.078125 -8.140625 C 9.109375 -8.335938 9.125 -8.628906 9.125 -9.015625 C 9.125 -9.410156 9.070312 -9.691406 8.96875 -9.859375 C 8.863281 -10.035156 8.71875 -10.125 8.53125 -10.125 C 8.351562 -10.125 8.191406 -10.082031 8.046875 -10 L 8.25 -7.546875 C 8.0625 -6.535156 7.96875 -5.460938 7.96875 -4.328125 C 7.96875 -3.203125 8.222656 -2.175781 8.734375 -1.25 C 7.753906 -0.238281 6.378906 0.265625 4.609375 0.265625 C 3.597656 0.265625 2.722656 0 1.984375 -0.53125 C 1.117188 -1.125 0.6875 -1.914062 0.6875 -2.90625 L 0.6875 -10.1875 C 0.101562 -11.007812 -0.1875 -12.03125 -0.1875 -13.25 C -0.1875 -14.46875 0.101562 -15.519531 0.6875 -16.40625 L 3.359375 -16.40625 C 4.066406 -16.40625 4.675781 -16.140625 5.1875 -15.609375 C 4.738281 -15.203125 4.515625 -14.863281 4.515625 -14.59375 C 4.515625 -14.28125 4.691406 -14.125 5.046875 -14.125 C 5.484375 -14.882812 6.15625 -15.515625 7.0625 -16.015625 C 7.96875 -16.515625 9 -16.765625 10.15625 -16.765625 C 11.882812 -16.765625 13.289062 -16.34375 14.375 -15.5 C 15.726562 -14.425781 16.40625 -12.765625 16.40625 -10.515625 Z M 16.359375 -7.4375 "/></g></g></g><g fill="#9f9a7f" fill-opacity="1"><g transform="translate(57.966289, 29.475658)"><g><path d="M 9.03125 -10.640625 C 8.9375 -10.742188 8.816406 -10.796875 8.671875 -10.796875 C 8.453125 -10.796875 8.300781 -10.632812 8.21875 -10.3125 C 8.144531 -10 8.109375 -9.363281 8.109375 -8.40625 L 8.109375 -6.875 C 8.109375 -6.601562 8.140625 -6.410156 8.203125 -6.296875 C 8.273438 -6.191406 8.390625 -6.140625 8.546875 -6.140625 C 8.710938 -6.140625 8.832031 -6.175781 8.90625 -6.25 L 8.90625 -8.265625 C 8.90625 -9.242188 8.945312 -10.035156 9.03125 -10.640625 Z M 7.953125 -19.515625 C 8.484375 -20.140625 9.066406 -20.609375 9.703125 -20.921875 C 10.347656 -21.234375 11.164062 -21.390625 12.15625 -21.390625 C 13.363281 -21.390625 14.34375 -21.054688 15.09375 -20.390625 C 15.863281 -19.671875 16.25 -18.703125 16.25 -17.484375 L 16.25 -7.5625 C 16.25 -6.070312 16.609375 -5.101562 17.328125 -4.65625 C 17.335938 -4.601562 17.34375 -4.507812 17.34375 -4.375 L 17.34375 -4.09375 C 17.34375 -2.675781 16.910156 -1.570312 16.046875 -0.78125 C 15.285156 -0.0820312 14.347656 0.265625 13.234375 0.265625 C 12.453125 0.265625 11.773438 0.101562 11.203125 -0.21875 C 10.523438 -0.601562 10.054688 -1.125 9.796875 -1.78125 C 9.453125 -1.78125 9.28125 -1.617188 9.28125 -1.296875 C 9.28125 -1.140625 9.335938 -0.960938 9.453125 -0.765625 C 9.566406 -0.578125 9.722656 -0.40625 9.921875 -0.25 C 9.328125 0.09375 8.5625 0.265625 7.625 0.265625 C 6.351562 0.265625 5.164062 -0.0234375 4.0625 -0.609375 C 2.957031 -1.191406 2.078125 -2.078125 1.421875 -3.265625 C 0.671875 -4.609375 0.296875 -6.242188 0.296875 -8.171875 C 0.296875 -10.734375 1.015625 -12.742188 2.453125 -14.203125 C 3.890625 -15.660156 5.722656 -16.390625 7.953125 -16.390625 C 9.273438 -16.390625 10.425781 -16.140625 11.40625 -15.640625 C 11.519531 -15.753906 11.578125 -15.867188 11.578125 -15.984375 C 11.578125 -16.285156 11.21875 -16.539062 10.5 -16.75 C 9.789062 -16.96875 9.078125 -17.078125 8.359375 -17.078125 C 8.359375 -18.097656 8.222656 -18.910156 7.953125 -19.515625 Z M 7.953125 -19.515625 "/></g></g></g><g fill="#9f9a7f" fill-opacity="1"><g transform="translate(75.190296, 29.475658)"><g><path d="M 7.8125 -7.578125 L 7.8125 -7.234375 C 7.8125 -7.078125 7.816406 -6.960938 7.828125 -6.890625 C 7.921875 -6.835938 8.03125 -6.8125 8.15625 -6.8125 C 8.445312 -6.8125 8.59375 -7.035156 8.59375 -7.484375 C 8.59375 -8.953125 8.671875 -10.476562 8.828125 -12.0625 C 8.992188 -13.644531 9.175781 -14.867188 9.375 -15.734375 C 10.175781 -16.328125 11.253906 -16.625 12.609375 -16.625 C 13.960938 -16.625 15.003906 -16.359375 15.734375 -15.828125 C 16.472656 -15.304688 16.84375 -14.675781 16.84375 -13.9375 C 16.84375 -13.625 16.660156 -12.34375 16.296875 -10.09375 C 15.878906 -7.800781 15.351562 -5.390625 14.71875 -2.859375 C 14.582031 -2.347656 14.347656 -1.628906 14.015625 -0.703125 C 13.679688 0.210938 13.320312 0.976562 12.9375 1.59375 C 11.75 3.476562 10.28125 4.648438 8.53125 5.109375 C 7.707031 5.316406 6.878906 5.421875 6.046875 5.421875 C 4.441406 5.421875 3.195312 5.019531 2.3125 4.21875 C 1.5 3.5 1.09375 2.601562 1.09375 1.53125 C 1.09375 0.46875 1.410156 -0.53125 2.046875 -1.46875 C 2.191406 -1.507812 2.460938 -1.53125 2.859375 -1.53125 C 3.265625 -1.53125 3.769531 -1.476562 4.375 -1.375 C 6.03125 -1.070312 6.875 -0.921875 6.90625 -0.921875 C 6.976562 -0.910156 7.054688 -0.894531 7.140625 -0.875 C 7.222656 -0.863281 7.332031 -0.859375 7.46875 -0.859375 C 7.613281 -0.859375 7.734375 -0.894531 7.828125 -0.96875 C 7.929688 -1.050781 7.984375 -1.210938 7.984375 -1.453125 L 4.4375 -2.125 C 3.570312 -2.488281 2.816406 -3.25 2.171875 -4.40625 C 1.378906 -5.820312 0.847656 -7.75 0.578125 -10.1875 C -0.0859375 -11.039062 -0.421875 -12.066406 -0.421875 -13.265625 C -0.421875 -14.472656 -0.117188 -15.519531 0.484375 -16.40625 L 4.34375 -16.40625 C 5.632812 -16.40625 6.597656 -16.035156 7.234375 -15.296875 C 7.703125 -14.742188 8.003906 -13.9375 8.140625 -12.875 C 7.921875 -11.132812 7.8125 -9.367188 7.8125 -7.578125 Z M 7.8125 -7.578125 "/></g></g></g><g fill="#382a40" fill-opacity="1"><g transform="translate(1.808369, 53.88648)"><g><path d="M 6.28125 -7.125 C 6.3125 -7.101562 6.394531 -7.09375 6.53125 -7.09375 C 6.664062 -7.09375 6.765625 -7.144531 6.828125 -7.25 C 6.898438 -7.363281 6.9375 -7.539062 6.9375 -7.78125 L 6.9375 -8.59375 C 6.9375 -8.84375 6.90625 -9.019531 6.84375 -9.125 C 6.789062 -9.238281 6.691406 -9.296875 6.546875 -9.296875 C 6.410156 -9.296875 6.316406 -9.28125 6.265625 -9.25 C 6.273438 -9.21875 6.28125 -9.160156 6.28125 -9.078125 Z M 6.546875 -2.328125 L 6.546875 -0.703125 C 6.234375 -0.441406 5.789062 -0.226562 5.21875 -0.0625 C 4.65625 0.101562 4.066406 0.1875 3.453125 0.1875 C 2.578125 0.1875 1.859375 0.0195312 1.296875 -0.3125 C 0.660156 -0.707031 0.34375 -1.273438 0.34375 -2.015625 L 0.34375 -12.109375 C 0.34375 -12.328125 0.492188 -12.550781 0.796875 -12.78125 C 1.109375 -13.007812 1.535156 -13.21875 2.078125 -13.40625 C 3.253906 -13.800781 4.59375 -14 6.09375 -14 C 8.164062 -14 9.816406 -13.476562 11.046875 -12.4375 C 12.285156 -11.40625 12.90625 -10.015625 12.90625 -8.265625 C 12.90625 -6.523438 12.347656 -5.171875 11.234375 -4.203125 C 10.160156 -3.273438 8.675781 -2.8125 6.78125 -2.8125 C 6.34375 -2.8125 5.878906 -2.863281 5.390625 -2.96875 C 4.898438 -3.070312 4.570312 -3.160156 4.40625 -3.234375 C 4.34375 -3.179688 4.3125 -3.101562 4.3125 -3 C 4.3125 -2.644531 5.054688 -2.421875 6.546875 -2.328125 Z M 6.546875 -2.328125 "/></g></g></g><g fill="#382a40" fill-opacity="1"><g transform="translate(14.55385, 53.88648)"><g><path d="M 11.078125 -5.265625 C 11.078125 -4.753906 11.132812 -4.34375 11.25 -4.03125 C 11.363281 -3.71875 11.5625 -3.472656 11.84375 -3.296875 C 11.851562 -3.253906 11.859375 -3.1875 11.859375 -3.09375 L 11.859375 -2.90625 C 11.859375 -1.894531 11.554688 -1.109375 10.953125 -0.546875 C 10.410156 -0.0546875 9.742188 0.1875 8.953125 0.1875 C 8.410156 0.1875 7.914062 0.0625 7.46875 -0.1875 C 7.019531 -0.445312 6.703125 -0.816406 6.515625 -1.296875 C 6.273438 -1.296875 6.15625 -1.179688 6.15625 -0.953125 C 6.15625 -0.742188 6.28125 -0.519531 6.53125 -0.28125 C 6.0625 0.03125 5.363281 0.1875 4.4375 0.1875 C 3.125 0.1875 2.078125 -0.164062 1.296875 -0.875 C 0.515625 -1.582031 0.125 -2.578125 0.125 -3.859375 C 0.125 -5.140625 0.539062 -6.128906 1.375 -6.828125 C 2.132812 -7.460938 3.113281 -7.78125 4.3125 -7.78125 C 4.726562 -7.78125 5.125 -7.75 5.5 -7.6875 C 5.757812 -7.644531 5.898438 -7.617188 5.921875 -7.609375 C 5.941406 -7.679688 5.953125 -7.742188 5.953125 -7.796875 C 5.953125 -7.972656 5.796875 -8.09375 5.484375 -8.15625 C 5.171875 -8.21875 4.765625 -8.25 4.265625 -8.25 C 3.191406 -8.25 2.273438 -8.035156 1.515625 -7.609375 C 1.171875 -8.191406 1 -8.9375 1 -9.84375 C 1 -10.351562 1.0625 -10.734375 1.1875 -10.984375 C 1.695312 -11.210938 2.34375 -11.414062 3.125 -11.59375 C 3.914062 -11.78125 4.75 -11.875 5.625 -11.875 C 7.425781 -11.875 8.785156 -11.476562 9.703125 -10.6875 C 10.617188 -9.90625 11.078125 -8.789062 11.078125 -7.34375 Z M 5.5625 -4.734375 C 5.269531 -4.734375 5.125 -4.601562 5.125 -4.34375 C 5.125 -4.082031 5.296875 -3.953125 5.640625 -3.953125 C 5.878906 -3.953125 6.054688 -4.007812 6.171875 -4.125 C 6.285156 -4.238281 6.34375 -4.441406 6.34375 -4.734375 C 6.34375 -4.734375 6.082031 -4.734375 5.5625 -4.734375 Z M 5.5625 -4.734375 "/></g></g></g><g fill="#382a40" fill-opacity="1"><g transform="translate(26.353252, 53.88648)"><g><path d="M 11.578125 -5.265625 C 11.578125 -4.753906 11.632812 -4.34375 11.75 -4.03125 C 11.863281 -3.71875 12.0625 -3.472656 12.34375 -3.296875 C 12.351562 -3.253906 12.359375 -3.1875 12.359375 -3.09375 L 12.359375 -2.90625 C 12.359375 -1.925781 12.078125 -1.164062 11.515625 -0.625 C 10.953125 -0.0820312 10.222656 0.1875 9.328125 0.1875 C 8.441406 0.1875 7.722656 -0.0625 7.171875 -0.5625 C 6.523438 -1.132812 6.203125 -2.003906 6.203125 -3.171875 C 6.203125 -3.671875 6.222656 -4.109375 6.265625 -4.484375 C 6.316406 -4.867188 6.347656 -5.140625 6.359375 -5.296875 C 6.378906 -5.460938 6.398438 -5.613281 6.421875 -5.75 C 6.453125 -5.894531 6.46875 -6.101562 6.46875 -6.375 C 6.46875 -6.65625 6.425781 -6.851562 6.34375 -6.96875 C 6.269531 -7.09375 6.164062 -7.15625 6.03125 -7.15625 C 5.90625 -7.15625 5.796875 -7.128906 5.703125 -7.078125 L 5.828125 -5.34375 C 5.703125 -4.625 5.640625 -3.863281 5.640625 -3.0625 C 5.640625 -2.269531 5.820312 -1.539062 6.1875 -0.875 C 5.488281 -0.164062 4.515625 0.1875 3.265625 0.1875 C 2.546875 0.1875 1.925781 0 1.40625 -0.375 C 0.789062 -0.800781 0.484375 -1.363281 0.484375 -2.0625 L 0.484375 -7.203125 C 0.0664062 -7.796875 -0.140625 -8.519531 -0.140625 -9.375 C -0.140625 -10.238281 0.0664062 -10.984375 0.484375 -11.609375 L 2.375 -11.609375 C 2.882812 -11.609375 3.316406 -11.421875 3.671875 -11.046875 C 3.359375 -10.753906 3.203125 -10.515625 3.203125 -10.328125 C 3.203125 -10.109375 3.328125 -10 3.578125 -10 C 3.878906 -10.539062 4.351562 -10.988281 5 -11.34375 C 5.644531 -11.695312 6.375 -11.875 7.1875 -11.875 C 8.40625 -11.875 9.398438 -11.570312 10.171875 -10.96875 C 11.128906 -10.207031 11.609375 -9.03125 11.609375 -7.4375 Z M 11.578125 -5.265625 "/></g></g></g><g fill="#382a40" fill-opacity="1"><g transform="translate(38.631009, 53.88648)"><g><path d="M 6.59375 0.328125 C 4.632812 0.328125 3.085938 -0.21875 1.953125 -1.3125 C 0.796875 -2.40625 0.21875 -3.90625 0.21875 -5.8125 C 0.21875 -7.726562 0.816406 -9.242188 2.015625 -10.359375 C 3.117188 -11.398438 4.515625 -11.921875 6.203125 -11.921875 C 7.898438 -11.921875 9.257812 -11.453125 10.28125 -10.515625 C 11.300781 -9.585938 11.8125 -8.445312 11.8125 -7.09375 C 11.8125 -5.875 11.390625 -4.957031 10.546875 -4.34375 C 9.773438 -3.757812 8.710938 -3.46875 7.359375 -3.46875 C 6.359375 -3.46875 5.507812 -3.679688 4.8125 -4.109375 C 4.757812 -4.054688 4.734375 -3.976562 4.734375 -3.875 C 4.734375 -3.65625 5.007812 -3.457031 5.5625 -3.28125 C 6.125 -3.09375 6.757812 -3 7.46875 -3 C 8.1875 -3 8.835938 -3.085938 9.421875 -3.265625 C 10.003906 -3.441406 10.472656 -3.65625 10.828125 -3.90625 C 10.992188 -3.757812 11.128906 -3.484375 11.234375 -3.078125 C 11.335938 -2.679688 11.390625 -2.316406 11.390625 -1.984375 C 11.390625 -1.660156 11.359375 -1.367188 11.296875 -1.109375 C 10.742188 -0.648438 10.175781 -0.316406 9.59375 -0.109375 C 8.769531 0.179688 7.769531 0.328125 6.59375 0.328125 Z M 6.46875 -6.859375 C 6.820312 -6.859375 7 -6.992188 7 -7.265625 C 7 -7.523438 6.804688 -7.65625 6.421875 -7.65625 C 6.046875 -7.65625 5.832031 -7.453125 5.78125 -7.046875 C 5.976562 -6.921875 6.207031 -6.859375 6.46875 -6.859375 Z M 6.46875 -6.859375 "/></g></g></g><g fill="#382a40" fill-opacity="1"><g transform="translate(50.664274, 53.88648)"><g><path d="M 1.578125 -6.71875 L 2.234375 -6.71875 C 2.585938 -6.71875 2.765625 -6.832031 2.765625 -7.0625 C 2.765625 -7.09375 2.753906 -7.132812 2.734375 -7.1875 L 0.359375 -7.1875 C 0.203125 -7.6875 0.125 -8.242188 0.125 -8.859375 C 0.125 -9.472656 0.171875 -9.96875 0.265625 -10.34375 C 0.671875 -10.601562 1.226562 -10.992188 1.9375 -11.515625 C 2.132812 -12.003906 2.390625 -12.769531 2.703125 -13.8125 C 2.753906 -13.957031 2.804688 -14.097656 2.859375 -14.234375 C 3.410156 -14.367188 4.039062 -14.4375 4.75 -14.4375 C 5.457031 -14.4375 6.15625 -14.363281 6.84375 -14.21875 L 6.84375 -11.609375 L 8.6875 -11.609375 C 9.09375 -10.992188 9.296875 -10.265625 9.296875 -9.421875 C 9.296875 -9.035156 9.242188 -8.640625 9.140625 -8.234375 C 9.035156 -7.828125 8.882812 -7.484375 8.6875 -7.203125 L 7.15625 -7.203125 L 7.15625 -5.59375 C 7.15625 -4.6875 7.535156 -4.234375 8.296875 -4.234375 L 8.75 -4.234375 C 8.90625 -3.703125 8.984375 -3.238281 8.984375 -2.84375 C 8.984375 -1.863281 8.675781 -1.113281 8.0625 -0.59375 C 7.445312 -0.0703125 6.554688 0.1875 5.390625 0.1875 C 4.222656 0.1875 3.296875 -0.132812 2.609375 -0.78125 C 1.921875 -1.425781 1.578125 -2.378906 1.578125 -3.640625 Z M 1.578125 -6.71875 "/></g></g></g><g fill="#382a40" fill-opacity="1"><g transform="translate(60.093165, 53.88648)"><g><path d="M 1.578125 -6.71875 L 2.234375 -6.71875 C 2.585938 -6.71875 2.765625 -6.832031 2.765625 -7.0625 C 2.765625 -7.09375 2.753906 -7.132812 2.734375 -7.1875 L 0.359375 -7.1875 C 0.203125 -7.6875 0.125 -8.242188 0.125 -8.859375 C 0.125 -9.472656 0.171875 -9.96875 0.265625 -10.34375 C 0.671875 -10.601562 1.226562 -10.992188 1.9375 -11.515625 C 2.132812 -12.003906 2.390625 -12.769531 2.703125 -13.8125 C 2.753906 -13.957031 2.804688 -14.097656 2.859375 -14.234375 C 3.410156 -14.367188 4.039062 -14.4375 4.75 -14.4375 C 5.457031 -14.4375 6.15625 -14.363281 6.84375 -14.21875 L 6.84375 -11.609375 L 8.6875 -11.609375 C 9.09375 -10.992188 9.296875 -10.265625 9.296875 -9.421875 C 9.296875 -9.035156 9.242188 -8.640625 9.140625 -8.234375 C 9.035156 -7.828125 8.882812 -7.484375 8.6875 -7.203125 L 7.15625 -7.203125 L 7.15625 -5.59375 C 7.15625 -4.6875 7.535156 -4.234375 8.296875 -4.234375 L 8.75 -4.234375 C 8.90625 -3.703125 8.984375 -3.238281 8.984375 -2.84375 C 8.984375 -1.863281 8.675781 -1.113281 8.0625 -0.59375 C 7.445312 -0.0703125 6.554688 0.1875 5.390625 0.1875 C 4.222656 0.1875 3.296875 -0.132812 2.609375 -0.78125 C 1.921875 -1.425781 1.578125 -2.378906 1.578125 -3.640625 Z M 1.578125 -6.71875 "/></g></g></g><g fill="#382a40" fill-opacity="1"><g transform="translate(69.522057, 53.88648)"><g><path d="M 5.796875 -9.5625 L 5.796875 -5.359375 C 5.796875 -4.296875 6.050781 -3.609375 6.5625 -3.296875 C 6.570312 -3.253906 6.578125 -3.1875 6.578125 -3.09375 L 6.578125 -2.90625 C 6.578125 -1.863281 6.296875 -1.078125 5.734375 -0.546875 C 5.203125 -0.0546875 4.5 0.1875 3.625 0.1875 C 2.75 0.1875 2.03125 -0.0546875 1.46875 -0.546875 C 0.75 -1.179688 0.390625 -2.101562 0.390625 -3.3125 L 0.390625 -10.21875 C 0.515625 -10.3125 0.648438 -10.382812 0.796875 -10.4375 C 0.953125 -10.5 1.113281 -10.570312 1.28125 -10.65625 C 0.96875 -10.8125 0.6875 -11.082031 0.4375 -11.46875 C 0.195312 -11.851562 0.078125 -12.304688 0.078125 -12.828125 C 0.078125 -13.722656 0.367188 -14.453125 0.953125 -15.015625 C 1.546875 -15.585938 2.269531 -15.875 3.125 -15.875 C 3.976562 -15.875 4.691406 -15.582031 5.265625 -15 C 5.835938 -14.425781 6.125 -13.703125 6.125 -12.828125 C 6.125 -12.128906 5.90625 -11.515625 5.46875 -10.984375 C 5.03125 -10.453125 4.5 -10.117188 3.875 -9.984375 C 3.875 -9.722656 3.972656 -9.59375 4.171875 -9.59375 C 4.535156 -9.59375 4.90625 -9.734375 5.28125 -10.015625 C 5.5625 -9.796875 5.734375 -9.644531 5.796875 -9.5625 Z M 5.796875 -9.5625 "/></g></g></g><g fill="#382a40" fill-opacity="1"><g transform="translate(76.017044, 53.88648)"><g><path d="M 6.59375 0.328125 C 4.632812 0.328125 3.085938 -0.21875 1.953125 -1.3125 C 0.796875 -2.40625 0.21875 -3.90625 0.21875 -5.8125 C 0.21875 -7.726562 0.816406 -9.242188 2.015625 -10.359375 C 3.117188 -11.398438 4.515625 -11.921875 6.203125 -11.921875 C 7.898438 -11.921875 9.257812 -11.453125 10.28125 -10.515625 C 11.300781 -9.585938 11.8125 -8.445312 11.8125 -7.09375 C 11.8125 -5.875 11.390625 -4.957031 10.546875 -4.34375 C 9.773438 -3.757812 8.710938 -3.46875 7.359375 -3.46875 C 6.359375 -3.46875 5.507812 -3.679688 4.8125 -4.109375 C 4.757812 -4.054688 4.734375 -3.976562 4.734375 -3.875 C 4.734375 -3.65625 5.007812 -3.457031 5.5625 -3.28125 C 6.125 -3.09375 6.757812 -3 7.46875 -3 C 8.1875 -3 8.835938 -3.085938 9.421875 -3.265625 C 10.003906 -3.441406 10.472656 -3.65625 10.828125 -3.90625 C 10.992188 -3.757812 11.128906 -3.484375 11.234375 -3.078125 C 11.335938 -2.679688 11.390625 -2.316406 11.390625 -1.984375 C 11.390625 -1.660156 11.359375 -1.367188 11.296875 -1.109375 C 10.742188 -0.648438 10.175781 -0.316406 9.59375 -0.109375 C 8.769531 0.179688 7.769531 0.328125 6.59375 0.328125 Z M 6.46875 -6.859375 C 6.820312 -6.859375 7 -6.992188 7 -7.265625 C 7 -7.523438 6.804688 -7.65625 6.421875 -7.65625 C 6.046875 -7.65625 5.832031 -7.453125 5.78125 -7.046875 C 5.976562 -6.921875 6.207031 -6.859375 6.46875 -6.859375 Z M 6.46875 -6.859375 "/></g></g></g><g fill="#382a40" fill-opacity="1"><g transform="translate(88.050308, 53.88648)"><g><path d="M 3.34375 0.140625 C 2.5 0.140625 1.828125 -0.0078125 1.328125 -0.3125 C 0.765625 -0.632812 0.484375 -1.109375 0.484375 -1.734375 L 0.484375 -7.203125 C 0.0664062 -7.796875 -0.140625 -8.519531 -0.140625 -9.375 C -0.140625 -10.238281 0.0664062 -10.984375 0.484375 -11.609375 L 2.109375 -11.609375 C 2.953125 -11.609375 3.550781 -11.34375 3.90625 -10.8125 C 3.726562 -10.613281 3.570312 -10.359375 3.4375 -10.046875 C 3.300781 -9.742188 3.234375 -9.523438 3.234375 -9.390625 C 3.234375 -9.265625 3.265625 -9.171875 3.328125 -9.109375 C 3.398438 -9.046875 3.503906 -9.015625 3.640625 -9.015625 C 3.878906 -9.992188 4.347656 -10.71875 5.046875 -11.1875 C 5.617188 -11.570312 6.328125 -11.765625 7.171875 -11.765625 C 8.222656 -11.765625 9.046875 -11.539062 9.640625 -11.09375 C 9.847656 -10.53125 9.953125 -9.835938 9.953125 -9.015625 C 9.953125 -8.203125 9.789062 -7.460938 9.46875 -6.796875 C 9.226562 -6.660156 8.894531 -6.546875 8.46875 -6.453125 C 8.039062 -6.367188 7.609375 -6.328125 7.171875 -6.328125 C 6.742188 -6.328125 6.359375 -6.359375 6.015625 -6.421875 C 5.671875 -6.484375 5.421875 -6.539062 5.265625 -6.59375 C 5.210938 -6.53125 5.1875 -6.445312 5.1875 -6.34375 C 5.1875 -6.238281 5.253906 -6.160156 5.390625 -6.109375 C 5.523438 -6.054688 5.757812 -6 6.09375 -5.9375 L 6.09375 -0.59375 C 5.320312 -0.101562 4.40625 0.140625 3.34375 0.140625 Z M 3.34375 0.140625 "/></g></g></g><g fill="#382a40" fill-opacity="1"><g transform="translate(98.138266, 53.88648)"><g><path d="M 6.59375 0.328125 C 4.632812 0.328125 3.085938 -0.21875 1.953125 -1.3125 C 0.796875 -2.40625 0.21875 -3.90625 0.21875 -5.8125 C 0.21875 -7.726562 0.816406 -9.242188 2.015625 -10.359375 C 3.117188 -11.398438 4.515625 -11.921875 6.203125 -11.921875 C 7.898438 -11.921875 9.257812 -11.453125 10.28125 -10.515625 C 11.300781 -9.585938 11.8125 -8.445312 11.8125 -7.09375 C 11.8125 -5.875 11.390625 -4.957031 10.546875 -4.34375 C 9.773438 -3.757812 8.710938 -3.46875 7.359375 -3.46875 C 6.359375 -3.46875 5.507812 -3.679688 4.8125 -4.109375 C 4.757812 -4.054688 4.734375 -3.976562 4.734375 -3.875 C 4.734375 -3.65625 5.007812 -3.457031 5.5625 -3.28125 C 6.125 -3.09375 6.757812 -3 7.46875 -3 C 8.1875 -3 8.835938 -3.085938 9.421875 -3.265625 C 10.003906 -3.441406 10.472656 -3.65625 10.828125 -3.90625 C 10.992188 -3.757812 11.128906 -3.484375 11.234375 -3.078125 C 11.335938 -2.679688 11.390625 -2.316406 11.390625 -1.984375 C 11.390625 -1.660156 11.359375 -1.367188 11.296875 -1.109375 C 10.742188 -0.648438 10.175781 -0.316406 9.59375 -0.109375 C 8.769531 0.179688 7.769531 0.328125 6.59375 0.328125 Z M 6.46875 -6.859375 C 6.820312 -6.859375 7 -6.992188 7 -7.265625 C 7 -7.523438 6.804688 -7.65625 6.421875 -7.65625 C 6.046875 -7.65625 5.832031 -7.453125 5.78125 -7.046875 C 5.976562 -6.921875 6.207031 -6.859375 6.46875 -6.859375 Z M 6.46875 -6.859375 "/></g></g></g></svg>